<svg width="311" height="244" viewBox="0 0 311 244" fill="none" xmlns="http://www.w3.org/2000/svg">
<path d="M152.565 186.912C169.139 187.444 181.043 173.043 178.847 156.516C176.651 139.989 166.688 125.866 154.738 125.565C142.788 125.265 132.317 138.556 128.988 154.921C125.66 171.286 135.923 185.918 152.565 186.843" fill="#FF6B00"/>
<path d="M264.001 33.1064C265.136 33.1064 266.223 32.6559 267.025 31.8539C267.827 31.052 268.278 29.9643 268.278 28.8302C268.278 27.6961 267.827 26.6084 267.025 25.8064C266.223 25.0045 265.136 24.554 264.001 24.554C256.663 24.5766 249.416 26.1778 242.752 29.2488C236.087 32.3199 230.161 36.7888 225.377 42.3523C226.533 46.1523 227.132 50.0997 227.157 54.0715C235.593 41.0348 249.254 33.014 264.001 33.2682" fill="#FF6B00"/>
<path d="M44.6425 29.4543C63.4348 29.7779 80.1006 43.693 86.0411 63.6179C86.537 59.4748 88.1333 55.54 90.664 52.2223C81.7648 33.7305 64.2207 21.2254 44.6656 20.9018C43.5315 20.9018 42.4438 21.3524 41.6419 22.1543C40.8399 22.9563 40.3894 24.0439 40.3894 25.1781C40.3894 26.3122 40.8399 27.3999 41.6419 28.2018C42.4438 29.0038 43.5315 29.4543 44.6656 29.4543" fill="#FF6B00"/>
<path d="M38.5171 126.143C37.9939 130.176 37.716 134.236 37.6849 138.302C37.6849 166.386 49.8664 192.806 72.149 212.662C95.0598 232.726 124.539 243.682 154.992 243.451H155.27C185.62 243.725 215.025 232.899 237.951 213.009C260.326 193.245 272.623 166.779 272.623 138.764C272.618 134.55 272.332 130.342 271.768 126.166C271.79 126.029 271.79 125.888 271.768 125.75C268.935 126.148 266.148 126.822 263.447 127.761C263.931 131.409 264.17 135.085 264.163 138.764C264.163 164.375 252.791 188.484 232.288 206.606C210.93 225.114 183.53 235.154 155.27 234.829H155.015C126.661 235.085 99.1984 224.928 77.8353 206.282C57.4018 187.975 46.1912 163.936 46.2374 138.302C46.2528 134.723 46.4921 131.148 46.9539 127.6C44.2511 126.679 41.4637 126.029 38.6326 125.658C38.5832 125.817 38.5446 125.979 38.5171 126.143" fill="#FF6B00"/>
<path d="M115.998 125.219C115.979 125.78 116.072 126.34 116.27 126.866C116.468 127.392 116.767 127.874 117.152 128.284C117.536 128.694 117.997 129.024 118.509 129.256C119.021 129.487 119.574 129.616 120.135 129.634H120.274C121.371 129.629 122.425 129.206 123.221 128.449C124.016 127.693 124.491 126.661 124.55 125.565C124.851 115.834 118.61 107.698 110.681 107.443C102.753 107.189 95.7955 114.817 95.495 124.548C95.4765 125.11 95.5688 125.67 95.7668 126.196C95.9648 126.722 96.2645 127.203 96.6487 127.613C97.033 128.023 97.4943 128.354 98.0063 128.585C98.5183 128.817 99.0709 128.945 99.6325 128.963H99.7712C100.88 128.958 101.944 128.525 102.741 127.754C103.538 126.983 104.006 125.934 104.047 124.826C104.209 119.902 107.006 115.811 110.312 115.903C113.617 115.996 116.16 120.272 115.998 125.149" fill="#FF6B00"/>
<path d="M206.007 125.219C205.988 125.78 206.08 126.34 206.278 126.866C206.476 127.392 206.776 127.874 207.16 128.284C207.545 128.694 208.006 129.024 208.518 129.256C209.03 129.487 209.582 129.616 210.144 129.634H210.283C211.38 129.629 212.434 129.206 213.229 128.449C214.024 127.693 214.5 126.661 214.559 125.565C214.859 115.834 208.618 107.698 200.69 107.443H200.297C192.461 107.443 185.92 115.048 185.596 124.618C185.578 125.179 185.67 125.739 185.868 126.265C186.066 126.791 186.366 127.273 186.75 127.683C187.134 128.093 187.595 128.423 188.107 128.655C188.619 128.886 189.172 129.015 189.734 129.033C190.296 129.057 190.857 128.969 191.384 128.773C191.912 128.577 192.394 128.278 192.804 127.892C193.213 127.506 193.541 127.042 193.768 126.527C193.995 126.013 194.117 125.458 194.126 124.895C194.287 120.018 197.107 115.973 200.297 115.973C203.533 115.973 206.145 120.342 205.983 125.219" fill="#FF6B00"/>
<path d="M129.959 203.693C136.063 210.187 144.493 213.997 153.401 214.287C162.309 214.577 170.969 211.325 177.483 205.242C177.893 204.858 178.223 204.397 178.455 203.885C178.686 203.374 178.815 202.822 178.833 202.26C178.851 201.699 178.759 201.14 178.561 200.614C178.363 200.089 178.064 199.607 177.68 199.197C177.296 198.788 176.835 198.458 176.323 198.226C175.811 197.994 175.259 197.866 174.698 197.847C174.137 197.829 173.577 197.922 173.052 198.12C172.526 198.317 172.045 198.617 171.635 199.001C166.782 203.544 160.323 205.975 153.678 205.758C147.034 205.541 140.747 202.695 136.2 197.845C135.425 197.018 134.352 196.532 133.219 196.495C132.085 196.458 130.983 196.873 130.156 197.649C129.328 198.424 128.842 199.497 128.805 200.63C128.769 201.764 129.184 202.866 129.959 203.693Z" fill="#FF6B00"/>
<path d="M22.175 62.231C37.7312 54.6262 57.7255 62.231 65.885 78.7812C66.2483 79.4836 66.7992 80.0715 67.4766 80.4795C68.154 80.8876 68.9313 81.0998 69.722 81.0926C70.3788 81.0906 71.0267 80.9405 71.6174 80.6535C72.6314 80.1468 73.4042 79.2603 73.7678 78.1868C74.1314 77.1132 74.0564 75.9395 73.5591 74.921C63.3423 54.1177 38.101 44.8718 18.4304 54.4876C17.894 54.7129 17.4093 55.0454 17.0058 55.4645C16.6023 55.8837 16.2887 56.3808 16.084 56.9254C15.8793 57.47 15.7879 58.0506 15.8153 58.6318C15.8428 59.2129 15.9885 59.7823 16.2437 60.3052C16.4988 60.8281 16.8579 61.2934 17.2991 61.6726C17.7403 62.0519 18.2542 62.3372 18.8095 62.511C19.3647 62.6847 19.9495 62.7434 20.5282 62.6833C21.1069 62.6233 21.6673 62.4458 22.175 62.1617" fill="#FF6B00"/>
<path d="M11.4035 94.3143C14.1605 92.1727 17.3471 90.651 20.7457 89.8532C24.1444 89.0554 27.6752 89.0002 31.0972 89.6913C35.1661 90.2581 39.0663 91.6902 42.5352 93.8911C46.0041 96.0921 48.9611 99.0108 51.2071 102.451C51.5953 103.068 52.1342 103.577 52.7731 103.928C53.412 104.28 54.1299 104.464 54.8592 104.462C55.6726 104.472 56.4729 104.256 57.1707 103.838C57.6493 103.542 58.065 103.155 58.3938 102.699C58.7227 102.242 58.9582 101.726 59.0871 101.178C59.2159 100.631 59.2354 100.063 59.1446 99.508C59.0537 98.9529 58.8542 98.4212 58.5576 97.9433C55.6778 93.4386 51.8556 89.6118 47.3544 86.7267C42.8531 83.8416 37.7798 81.9667 32.4841 81.2313C27.8337 80.3618 23.0502 80.5087 18.4619 81.6617C13.8736 82.8148 9.58901 84.9468 5.90214 87.9115C5.44111 88.2658 5.0572 88.7105 4.77388 89.2183C4.49055 89.7261 4.31377 90.2863 4.25433 90.8648C4.19489 91.4432 4.25406 92.0277 4.4282 92.5825C4.60234 93.1373 4.8878 93.6508 5.26714 94.0915C5.64647 94.5322 6.1117 94.8909 6.63439 95.1457C7.15708 95.4005 7.72624 95.546 8.30708 95.5734C8.88792 95.6007 9.46824 95.5093 10.0126 95.3047C10.5569 95.1002 11.0537 94.7867 11.4728 94.3836" fill="#FF6B00"/>
<path d="M2.48114 142.855C3.03545 143.126 3.64391 143.269 4.26097 143.271C5.07675 143.272 5.87581 143.04 6.56388 142.602C7.25195 142.164 7.80031 141.538 8.14425 140.798C13.4144 129.449 25.0874 123.924 38.6326 125.658C41.4637 126.029 44.2511 126.679 46.9539 127.6L47.9248 127.9C48.9945 128.28 50.1714 128.22 51.1966 127.732C52.2218 127.244 53.0113 126.369 53.3914 125.3C53.7715 124.23 53.711 123.053 53.2234 122.028C52.7357 121.003 51.8607 120.213 50.791 119.833C29.4098 112.251 8.67589 119.371 0.400809 137.192C0.163807 137.7 0.0296237 138.25 0.00598023 138.811C-0.0176633 139.371 0.069701 139.93 0.263044 140.456C0.456386 140.983 0.75189 141.466 1.13256 141.877C1.51323 142.289 1.97154 142.621 2.48114 142.855" fill="#FF6B00"/>
<path d="M237.396 74.9903C237.147 75.4941 236.999 76.0422 236.962 76.6031C236.925 77.164 236.998 77.7267 237.179 78.2592C237.359 78.7916 237.643 79.2832 238.013 79.706C238.384 80.1287 238.834 80.4742 239.338 80.7228C239.92 81.0126 240.561 81.163 241.21 81.162C242.002 81.1718 242.78 80.9607 243.458 80.5523C244.136 80.144 244.686 79.5546 245.047 78.8505C253.23 62.2541 273.224 54.6956 288.757 62.3003C289.77 62.7629 290.923 62.8122 291.972 62.4378C293.021 62.0633 293.882 61.2946 294.373 60.2952C294.863 59.2957 294.945 58.1443 294.6 57.0856C294.255 56.027 293.51 55.1447 292.525 54.6262C272.854 44.9874 247.59 54.3489 237.396 75.0597" fill="#FF6B00"/>
<path d="M278.541 81.162C273.245 81.8889 268.17 83.7552 263.664 86.6323C259.159 89.5094 255.331 93.3289 252.444 97.8277C251.853 98.7973 251.67 99.9612 251.934 101.066C252.198 102.17 252.888 103.125 253.854 103.722C254.547 104.152 255.351 104.369 256.166 104.346C256.892 104.346 257.606 104.162 258.24 103.81C258.875 103.458 259.41 102.951 259.795 102.335C262.046 98.8981 265.004 95.9803 268.472 93.7762C271.939 91.5721 275.837 90.1322 279.905 89.5526C283.326 88.8599 286.858 88.9144 290.257 89.7123C293.655 90.5101 296.842 92.0326 299.598 94.1756C300.017 94.5787 300.514 94.8922 301.059 95.0967C301.603 95.3013 302.183 95.3927 302.764 95.3653C303.345 95.338 303.914 95.1925 304.437 94.9377C304.959 94.6829 305.425 94.3242 305.804 93.8834C306.183 93.4427 306.469 92.9293 306.643 92.3745C306.817 91.8197 306.876 91.2352 306.817 90.6568C306.757 90.0783 306.581 89.5181 306.297 89.0103C306.014 88.5025 305.63 88.0578 305.169 87.7035C301.487 84.738 297.207 82.6053 292.622 81.4521C288.037 80.2989 283.257 80.1526 278.61 81.0233" fill="#FF6B00"/>
<path d="M302.788 140.798C303.137 141.534 303.686 142.157 304.373 142.595C305.06 143.032 305.857 143.267 306.671 143.271C307.296 143.269 307.912 143.127 308.474 142.855C308.984 142.621 309.442 142.289 309.823 141.877C310.204 141.466 310.499 140.983 310.692 140.456C310.886 139.93 310.973 139.371 310.949 138.811C310.926 138.25 310.792 137.7 310.555 137.192C302.28 119.371 281.546 112.251 260.164 119.833C259.599 119.989 259.072 120.261 258.616 120.629C258.159 120.998 257.784 121.457 257.513 121.978C257.242 122.498 257.08 123.068 257.039 123.654C256.998 124.239 257.077 124.826 257.273 125.379C257.468 125.933 257.776 126.44 258.175 126.869C258.575 127.298 259.059 127.641 259.597 127.875C260.135 128.109 260.715 128.23 261.302 128.231C261.889 128.231 262.469 128.111 263.008 127.877L263.447 127.738C266.148 126.798 268.935 126.125 271.768 125.727C285.637 123.762 297.449 129.264 302.788 140.775" fill="#FF6B00"/>
<path d="M167.128 43.8317C167.178 45.7831 167.031 47.7348 166.688 49.6566C166.344 51.0798 165.741 52.4276 164.909 53.6323C163.693 55.4592 162.041 56.9531 160.101 57.9779C158.171 59.0236 156.008 59.5643 153.813 59.5497C151.984 59.5705 150.168 59.2247 148.474 58.5326C146.775 57.8 145.248 56.7215 143.99 55.3659C143.224 54.5254 142.564 53.5938 142.025 52.5922C141.499 51.5851 141.111 50.5123 140.869 49.4023C140.604 48.1796 140.473 46.9319 140.476 45.6808C140.441 44.4373 140.566 43.1945 140.846 41.9825C141.079 41.1264 141.506 40.3355 142.094 39.671C142.578 39.1049 143.181 38.6536 143.861 38.3497C144.541 38.0459 145.279 37.8971 146.024 37.9143C146.792 37.8801 147.559 38.011 148.273 38.298C148.987 38.5851 149.631 39.0217 150.161 39.5785C151.245 40.7959 151.809 42.3888 151.733 44.0166V45.8658C151.69 46.5254 151.896 47.1772 152.311 47.6918C152.501 47.9085 152.736 48.0809 152.999 48.1967C153.263 48.3126 153.549 48.369 153.837 48.3622C154.259 48.3778 154.674 48.2553 155.021 48.0134C155.367 47.7715 155.625 47.4232 155.755 47.0215C155.908 46.191 155.955 45.3443 155.894 44.502V32.1125C155.861 31.0143 155.931 29.9155 156.102 28.8302C156.236 28.1517 156.52 27.5119 156.934 26.9579C157.439 26.2322 158.124 25.6506 158.922 25.2705C159.739 24.8451 160.647 24.623 161.568 24.623C162.49 24.623 163.398 24.8451 164.215 25.2705C165.028 25.6715 165.715 26.2869 166.203 27.0503C166.572 27.5851 166.824 28.1915 166.943 28.8302C167.06 29.9047 167.106 30.9857 167.081 32.0662L167.128 43.8317ZM225.377 42.3061C220.754 26.8192 207.047 13.3664 187.191 5.831C182.377 3.93842 177.37 2.58188 172.259 1.78591C165.86 0.962962 159.396 0.761695 152.958 1.18493C145.314 1.5386 137.78 3.1392 130.652 5.92346C124.11 8.17678 118.157 11.87 113.232 16.7307C108.308 21.5914 104.537 27.4956 102.198 34.0079C100.858 37.8449 99.2626 41.3584 97.3903 45.4497L97.113 46.0507C94.7399 47.8208 92.6104 49.8959 90.7795 52.2223C89.3109 54.1419 88.1347 56.2684 87.2892 58.5326C86.7023 60.1891 86.2841 61.9006 86.041 63.641C85.5802 66.7049 85.8011 69.8327 86.6881 72.8014C87.5751 75.7701 89.1063 78.5064 91.1725 80.8153C100.904 91.6099 116.067 87.7497 122.562 86.0392C130.717 83.9043 139.064 82.5879 147.48 82.1097C152.267 81.7148 157.086 82.0658 161.765 83.1499C161.973 83.1499 183.146 90.6622 195.397 90.6622H195.836C210.791 90.431 218.072 78.55 221.262 73.4879C221.632 72.8638 221.979 72.2628 222.349 71.7312C224.919 68.0705 226.51 63.8136 226.972 59.3648C227.168 57.5918 227.26 55.809 227.249 54.0253C227.226 50.0533 226.627 46.1057 225.469 42.3061" fill="#FF6B00"/>
<path d="M91.288 151.5C88.0878 151.5 84.9595 152.449 82.2987 154.227C79.6379 156.005 77.564 158.532 76.3393 161.489C75.1147 164.445 74.7943 167.698 75.4186 170.837C76.0429 173.976 77.5839 176.859 79.8468 179.122C82.1096 181.385 84.9927 182.926 88.1314 183.55C91.2701 184.174 94.5234 183.854 97.4799 182.629C100.437 181.405 102.964 179.331 104.741 176.67C106.519 174.009 107.468 170.881 107.468 167.68C107.484 165.551 107.076 163.44 106.268 161.47C105.46 159.5 104.269 157.711 102.763 156.205C101.258 154.699 99.4681 153.508 97.4981 152.701C95.5281 151.893 93.4171 151.485 91.288 151.5" fill="#FF6B00"/>
<path d="M215.414 183.63C218.614 183.63 221.743 182.681 224.404 180.903C227.064 179.125 229.138 176.598 230.363 173.641C231.588 170.685 231.908 167.431 231.284 164.293C230.659 161.154 229.118 158.271 226.855 156.008C224.593 153.745 221.71 152.204 218.571 151.58C215.432 150.956 212.179 151.276 209.222 152.501C206.266 153.725 203.739 155.799 201.961 158.46C200.183 161.121 199.234 164.249 199.234 167.449C199.219 169.578 199.627 171.689 200.434 173.659C201.242 175.629 202.433 177.419 203.939 178.925C205.444 180.43 207.234 181.622 209.204 182.429C211.174 183.237 213.285 183.645 215.414 183.63" fill="#FF6B00"/>
</svg>
