<svg width="72" height="53" viewBox="0 0 72 53" fill="none" xmlns="http://www.w3.org/2000/svg">
<path d="M44.46 11.08V4.78997C44.448 4.23484 44.4815 3.67965 44.56 3.12997C44.6303 2.76976 44.7769 2.42878 44.99 2.12997C45.2461 1.76668 45.5902 1.47424 45.99 1.27996C46.4028 1.07229 46.8579 0.962789 47.32 0.959971C47.7945 0.958726 48.2619 1.07557 48.68 1.29997C49.0888 1.5082 49.4342 1.8225 49.68 2.20997C49.8655 2.48155 49.9947 2.78758 50.06 3.10996C50.1207 3.65439 50.1441 4.20234 50.13 4.74996V10.75C50.1554 11.7552 50.0783 12.7604 49.9 13.75C49.7226 14.4653 49.4178 15.1428 49 15.75C48.385 16.6798 47.5459 17.4398 46.56 17.96C45.5759 18.4872 44.4764 18.762 43.36 18.76C42.428 18.7596 41.5058 18.569 40.65 18.2C39.7862 17.8277 39.0097 17.2794 38.37 16.59C37.9758 16.1809 37.6394 15.72 37.37 15.22C37.099 14.709 36.8972 14.1642 36.77 13.6C36.6385 12.9787 36.5748 12.345 36.58 11.71C36.562 11.0777 36.6259 10.4458 36.77 9.82997C36.8753 9.38615 37.0921 8.97655 37.4 8.63996C37.6444 8.3495 37.9512 8.11778 38.2974 7.96199C38.6436 7.80619 39.0204 7.73031 39.4 7.73997C39.7904 7.72307 40.18 7.79021 40.5423 7.93685C40.9046 8.0835 41.2312 8.30621 41.5 8.58996C42.0526 9.20533 42.34 10.0139 42.3 10.84V11.78C42.2783 12.1168 42.3856 12.4493 42.6 12.71C42.6968 12.8174 42.8158 12.9025 42.9488 12.9595C43.0817 13.0165 43.2254 13.0439 43.37 13.04C43.588 13.0514 43.8038 12.991 43.9844 12.8682C44.165 12.7455 44.3004 12.5669 44.37 12.36C44.4531 11.9455 44.4834 11.5221 44.46 11.1" fill="#FF6B00"/>
<path d="M56.52 9.86001C56.515 10.4536 56.67 11.0376 56.97 11.55C57.261 12.0544 57.678 12.4747 58.18 12.77C58.686 13.0686 59.263 13.2241 59.85 13.22C60.431 13.224 61.002 13.0683 61.5 12.77C62 12.4719 62.416 12.0522 62.71 11.55C63.01 11.0485 63.165 10.4742 63.16 9.89001C63.163 9.45222 63.075 9.01855 62.903 8.61597C62.731 8.2134 62.478 7.85056 62.16 7.55001C61.859 7.22996 61.494 6.97585 61.09 6.80373C60.685 6.63162 60.25 6.54522 59.81 6.55001C59.227 6.54616 58.654 6.69807 58.15 6.99001C57.656 7.28238 57.241 7.69085 56.94 8.18002C56.641 8.67799 56.485 9.24903 56.49 9.83001L56.52 9.86001ZM50.9 9.75001C50.8835 8.19538 51.2952 6.6662 52.09 5.33001C52.8688 4.00135 53.987 2.90381 55.33 2.15002C56.688 1.36488 58.231 0.957441 59.8 0.970009C60.98 0.967368 62.149 1.19849 63.24 1.65002C64.306 2.09394 65.277 2.73901 66.1 3.55001C66.917 4.36788 67.569 5.33552 68.02 6.40002C68.478 7.48532 68.713 8.65191 68.71 9.83001C68.715 11.0009 68.484 12.1608 68.03 13.24C67.573 14.3065 66.918 15.2769 66.1 16.1C65.277 16.918 64.307 17.5728 63.24 18.03C62.158 18.4851 60.994 18.7165 59.82 18.71C58.631 18.7184 57.453 18.4801 56.36 18.01C55.293 17.5631 54.322 16.9146 53.5 16.1C52.6833 15.2724 52.0347 14.2944 51.59 13.22C51.1285 12.1217 50.8938 10.9414 50.9 9.75001Z" fill="#FF6B00"/>
<path d="M11.57 11.08V4.78996C11.5529 4.23474 11.5863 3.67911 11.67 3.12996C11.7403 2.76975 11.8869 2.42877 12.1 2.12996C12.3561 1.76667 12.7002 1.47423 13.1 1.27995C13.5128 1.07228 13.9679 0.962779 14.43 0.959961C14.9044 0.959961 15.3714 1.07673 15.79 1.29996C16.1969 1.51096 16.5416 1.82466 16.79 2.20996C16.973 2.48181 17.0989 2.788 17.16 3.10995C17.2257 3.65401 17.2525 4.20208 17.24 4.74995V10.75C17.2654 11.7552 17.1883 12.7604 17.01 13.75C16.8326 14.4653 16.5278 15.1428 16.11 15.75C15.4913 16.6802 14.6488 17.4401 13.66 17.96C12.6795 18.4871 11.5832 18.762 10.47 18.76C9.53471 18.7596 8.60931 18.569 7.75001 18.2C6.88931 17.8276 6.11601 17.2791 5.48001 16.59C5.08941 16.178 4.75331 15.7176 4.48001 15.22C4.21221 14.7085 4.01381 14.1638 3.89001 13.6C3.75851 12.9787 3.69481 12.345 3.70001 11.71C3.68461 11.0784 3.74501 10.4472 3.88001 9.82996C3.99341 9.38922 4.20921 8.98148 4.51001 8.63995C4.75491 8.35005 5.06171 8.11871 5.40781 7.96297C5.75391 7.80722 6.13051 7.73102 6.51001 7.73996C6.90051 7.72306 7.29001 7.7902 7.65231 7.93684C8.01461 8.08349 8.34121 8.3062 8.61001 8.58995C9.15891 9.20689 9.44281 10.0152 9.40001 10.84V11.78C9.38041 12.1149 9.48351 12.4455 9.69001 12.71C9.78791 12.8187 9.90851 12.9046 10.0433 12.9616C10.1781 13.0186 10.3237 13.0454 10.47 13.04C10.688 13.0513 10.9039 12.991 11.0844 12.8682C11.265 12.7455 11.4004 12.5669 11.47 12.36C11.5531 11.9454 11.5834 11.5221 11.56 11.1" fill="#FF6B00"/>
<path d="M23.63 9.86002C23.6261 10.4522 23.7778 11.035 24.07 11.55C24.365 12.0548 24.7852 12.475 25.29 12.77C25.7956 13.0686 26.3728 13.2241 26.96 13.22C27.5406 13.2225 28.111 13.0669 28.61 12.77C29.1098 12.4719 29.526 12.0522 29.82 11.55C30.1119 11.0458 30.2638 10.4727 30.26 9.89002C30.2634 9.45215 30.1763 9.0183 30.0043 8.61564C29.8322 8.21298 29.5788 7.8502 29.26 7.55003C28.9583 7.23045 28.5938 6.97667 28.1894 6.80459C27.785 6.63251 27.3495 6.54584 26.91 6.55003C26.3272 6.54471 25.7537 6.69672 25.25 6.99003C24.7761 7.28904 24.3843 7.70148 24.11 8.19003C23.8107 8.688 23.655 9.25904 23.66 9.84002L23.63 9.86002ZM18.06 9.76003C18.0486 8.20606 18.4599 6.67821 19.25 5.34002C20.0288 4.01136 21.147 2.91382 22.49 2.16003C23.848 1.37488 25.3914 0.967451 26.96 0.980018C28.1404 0.976582 29.3097 1.20773 30.4 1.66003C31.4677 2.10149 32.4392 2.74685 33.26 3.56002C34.0846 4.3717 34.7375 5.34092 35.18 6.41003C35.6383 7.49533 35.873 8.66192 35.87 9.84002C35.8804 11.0114 35.6489 12.1723 35.19 13.25C34.7403 14.3206 34.0845 15.2924 33.26 16.11C32.443 16.9307 31.4753 17.586 30.41 18.04C29.3273 18.4944 28.1641 18.7257 26.99 18.72C25.7975 18.7275 24.6163 18.4892 23.52 18.02C22.4547 17.5749 21.4866 16.9261 20.67 16.11C19.8533 15.2824 19.2046 14.3044 18.76 13.23C18.2908 12.1337 18.0525 10.9525 18.06 9.76003Z" fill="#FF6B00"/>
<path d="M68.92 50.0401C69.033 50.1949 69.185 50.3171 69.361 50.3944C69.536 50.4716 69.729 50.5012 69.92 50.48C70.177 50.4843 70.431 50.415 70.65 50.28C70.866 50.142 71.036 49.9438 71.14 49.7101V50.37H71.83V46.0101H71.11V48.48C71.129 48.8309 71.042 49.1794 70.86 49.48C70.776 49.596 70.664 49.6888 70.535 49.75C70.406 49.8112 70.263 49.8387 70.12 49.83C70.004 49.8394 69.887 49.8195 69.781 49.7724C69.674 49.7252 69.581 49.6522 69.51 49.56C69.358 49.2964 69.289 48.9935 69.31 48.69V45.9901H68.63V48.69C68.594 49.1547 68.703 49.619 68.94 50.0201L68.92 50.0401ZM67.24 47.0201C67.211 46.847 67.142 46.6829 67.04 46.5401C66.895 46.3252 66.69 46.1582 66.45 46.06C66.172 45.9441 65.871 45.8896 65.57 45.9001C65.345 45.8996 65.12 45.9231 64.9 45.97C64.654 46.0268 64.413 46.1037 64.18 46.2V46.92C64.394 46.7844 64.626 46.68 64.87 46.61C65.097 46.5433 65.333 46.5096 65.57 46.5101C65.853 46.4795 66.137 46.5621 66.36 46.7401C66.454 46.8419 66.525 46.962 66.57 47.0928C66.614 47.2236 66.632 47.3623 66.62 47.5V47.61H65.7C65.217 47.5776 64.737 47.7117 64.34 47.9901C64.18 48.1255 64.055 48.2965 63.973 48.4892C63.892 48.682 63.856 48.8912 63.87 49.1001C63.862 49.2838 63.891 49.4673 63.957 49.6393C64.022 49.8113 64.122 49.9681 64.25 50.1001C64.383 50.2272 64.54 50.3264 64.711 50.3917C64.883 50.457 65.066 50.487 65.25 50.48C65.532 50.4907 65.812 50.4251 66.06 50.2901C66.293 50.1552 66.484 49.9577 66.61 49.72V50.37H67.29V47.8801C67.298 47.5921 67.278 47.3041 67.23 47.0201H67.24ZM66.61 48.17V48.33C66.627 48.7359 66.512 49.1363 66.28 49.47C66.177 49.6035 66.043 49.7104 65.89 49.7817C65.737 49.853 65.569 49.8867 65.4 49.8801C65.286 49.8878 65.171 49.8723 65.063 49.8345C64.954 49.7966 64.855 49.7373 64.77 49.66C64.694 49.5787 64.635 49.4826 64.597 49.3777C64.559 49.2728 64.543 49.1613 64.55 49.05C64.542 48.9239 64.565 48.7976 64.617 48.6825C64.67 48.5674 64.75 48.467 64.85 48.39C65.118 48.2292 65.428 48.1526 65.74 48.17H66.61ZM60.29 50.37H61.59V48.7901H60.29V50.37ZM56.53 46.03C56.395 45.9384 56.233 45.8928 56.07 45.9001C55.921 45.8969 55.775 45.9387 55.65 46.0201C55.519 46.1134 55.413 46.2369 55.34 46.3801V46H54.73V50.37H55.34V47.87C55.316 47.4899 55.353 47.1083 55.45 46.7401C55.478 46.6656 55.529 46.6021 55.595 46.5589C55.662 46.5157 55.741 46.495 55.82 46.5C55.899 46.4913 55.978 46.508 56.046 46.5476C56.115 46.5872 56.168 46.6476 56.2 46.72C56.3 47.0947 56.337 47.4833 56.31 47.87V50.37H56.93V47.87C56.906 47.4899 56.943 47.1083 57.04 46.7401C57.075 46.6624 57.133 46.5976 57.207 46.5546C57.28 46.5116 57.365 46.4925 57.45 46.5C57.524 46.4932 57.599 46.511 57.662 46.5508C57.726 46.5905 57.774 46.65 57.8 46.72C57.894 47.0957 57.927 47.4838 57.9 47.87V50.37H58.52V47.84C58.553 47.3186 58.485 46.7958 58.32 46.3C58.255 46.1703 58.152 46.063 58.026 45.9918C57.9 45.9205 57.755 45.8886 57.61 45.9001C57.444 45.8941 57.28 45.9395 57.14 46.03C56.998 46.1388 56.887 46.2839 56.82 46.45C56.773 46.2815 56.671 46.1336 56.53 46.03ZM50.76 46.4901C50.4245 46.991 50.2628 47.5883 50.3 48.19C50.2628 48.7918 50.4245 49.3891 50.76 49.89C50.9166 50.087 51.1183 50.2434 51.3481 50.346C51.5778 50.4487 51.8288 50.4947 52.08 50.48C52.331 50.493 52.5815 50.4463 52.811 50.3438C53.04 50.2412 53.242 50.0857 53.4 49.89C53.732 49.3879 53.89 48.7907 53.85 48.19C53.89 47.5894 53.732 46.9922 53.4 46.4901C53.243 46.2931 53.042 46.1367 52.812 46.0341C52.5823 45.9314 52.3312 45.8854 52.08 45.9001C51.8285 45.8828 51.5766 45.9276 51.3465 46.0305C51.1163 46.1334 50.9149 46.2912 50.76 46.4901ZM52.87 46.9301C53.06 47.3216 53.142 47.7562 53.11 48.19C53.135 48.6224 53.046 49.0537 52.85 49.44C52.77 49.5769 52.6541 49.6893 52.5149 49.7651C52.3757 49.8408 52.2184 49.8771 52.06 49.87C51.9017 49.8771 51.7444 49.8408 51.6051 49.7651C51.4659 49.6893 51.35 49.5769 51.27 49.44C51.0744 49.0537 50.9847 48.6224 51.01 48.19C50.9839 47.7545 51.0736 47.3197 51.27 46.9301C51.3521 46.7958 51.4687 46.686 51.6077 46.6122C51.7466 46.5383 51.9028 46.503 52.06 46.5101C52.2172 46.503 52.3734 46.5383 52.5124 46.6122C52.6513 46.686 52.7679 46.7958 52.85 46.9301H52.87ZM49.18 49.4001C49.0301 49.5508 48.8539 49.6728 48.66 49.7601C48.4549 49.8346 48.2382 49.8718 48.02 49.87C47.8303 49.8819 47.6405 49.8481 47.4665 49.7716C47.2926 49.695 47.1394 49.5779 47.02 49.4301C46.7698 49.0666 46.6467 48.6307 46.67 48.19C46.6445 47.7461 46.7676 47.3062 47.02 46.94C47.1394 46.7927 47.2928 46.6766 47.467 46.6017C47.6412 46.5268 47.831 46.4953 48.02 46.5101C48.2321 46.503 48.4433 46.5405 48.64 46.62C48.8395 46.7078 49.0223 46.8296 49.18 46.98V46.19C49.0019 46.0819 48.8102 45.9979 48.61 45.94C48.4184 45.8841 48.2196 45.8571 48.02 45.86C47.7404 45.8442 47.4608 45.8908 47.2014 45.9963C46.942 46.1018 46.7092 46.2636 46.52 46.47C46.1323 46.9411 45.9359 47.5409 45.97 48.1501C45.9369 48.7591 46.1331 49.3585 46.52 49.83C46.7092 50.0365 46.942 50.1983 47.2014 50.3038C47.4608 50.4093 47.7404 50.4559 48.02 50.44C48.2201 50.4397 48.419 50.4094 48.61 50.3501C48.8116 50.2961 49.0038 50.2118 49.18 50.1001V49.4001ZM42.18 50.4001H43.48V48.8201H42.18V50.4001ZM37.43 47.6501C37.4528 47.3603 37.5767 47.0878 37.78 46.8801C37.8802 46.7655 38.0053 46.6753 38.1457 46.6163C38.286 46.5574 38.438 46.5313 38.59 46.5401C38.7346 46.5282 38.8799 46.551 39.0138 46.6067C39.1478 46.6623 39.2665 46.7492 39.36 46.86C39.5445 47.0847 39.6561 47.3603 39.68 47.6501H37.43ZM39.87 46.4901C39.7195 46.306 39.5282 46.1596 39.3112 46.0624C39.0942 45.9652 38.8575 45.9199 38.62 45.9301C38.3521 45.9211 38.0856 45.9722 37.8399 46.0794C37.5942 46.1867 37.3756 46.3475 37.2 46.55C36.8285 47.025 36.6403 47.6178 36.67 48.22C36.6361 48.8276 36.8284 49.4261 37.21 49.9001C37.4016 50.1062 37.6362 50.2677 37.8971 50.3731C38.1581 50.4785 38.439 50.5253 38.72 50.5101C38.9562 50.5091 39.1913 50.4788 39.42 50.42C39.6774 50.3609 39.9286 50.2772 40.17 50.17V49.4601C39.9297 49.5979 39.6748 49.7086 39.41 49.7901C39.1898 49.8591 38.9608 49.8961 38.73 49.9001C38.5451 49.9106 38.3601 49.8813 38.1875 49.814C38.015 49.7467 37.8589 49.643 37.73 49.5101C37.467 49.1384 37.3528 48.6817 37.41 48.23H40.36V47.8801C40.3552 47.3813 40.1826 46.8987 39.87 46.5101V46.4901ZM35.62 49.45C35.4666 49.6011 35.287 49.7231 35.09 49.81C34.8884 49.8847 34.675 49.9219 34.46 49.92C34.2705 49.9303 34.0812 49.8958 33.9075 49.8193C33.7338 49.7429 33.5805 49.6267 33.46 49.48C33.1989 49.1029 33.0753 48.6475 33.11 48.19C33.0815 47.7472 33.2011 47.3075 33.45 46.94C33.5705 46.794 33.724 46.6788 33.898 46.604C34.0719 46.5292 34.2611 46.497 34.45 46.5101C34.6588 46.5033 34.8667 46.5407 35.06 46.62C35.2614 46.71 35.447 46.8315 35.61 46.98V46.19C35.4275 46.0835 35.2328 45.9996 35.03 45.94C34.842 45.8834 34.6463 45.8564 34.45 45.86C34.1689 45.8441 33.8878 45.8906 33.6267 45.996C33.3657 46.1015 33.1312 46.2634 32.94 46.47C32.555 46.9421 32.3621 47.542 32.4 48.1501C32.3641 48.7578 32.5567 49.357 32.94 49.83C33.1312 50.0367 33.3657 50.1986 33.6267 50.304C33.8878 50.4095 34.1689 50.4559 34.45 50.44C34.6501 50.4397 34.849 50.4094 35.04 50.3501C35.2402 50.2922 35.4319 50.2082 35.61 50.1001L35.62 49.45ZM28.2 50.09C28.3065 50.2371 28.4487 50.3547 28.6131 50.4317C28.7775 50.5086 28.9589 50.5425 29.14 50.53C29.3976 50.5355 29.6512 50.466 29.87 50.33C30.0885 50.1926 30.2622 49.9945 30.37 49.7601V50.42H31.05V46.06H30.37V48.53C30.386 48.8819 30.2954 49.2305 30.11 49.53C30.0283 49.6459 29.9184 49.7388 29.7906 49.8001C29.6628 49.8613 29.5215 49.8889 29.38 49.8801C29.2626 49.8884 29.1448 49.8682 29.0369 49.8212C28.9289 49.7742 28.8339 49.7017 28.76 49.61C28.6124 49.3451 28.5463 49.0424 28.57 48.7401V46.0401H27.89V48.7401C27.8544 49.2047 27.9626 49.669 28.2 50.0701V50.09ZM26.5 47.0701C26.4661 46.8983 26.3981 46.7351 26.3 46.59C26.1552 46.3752 25.9498 46.2082 25.71 46.11C25.4313 45.995 25.1314 45.9405 24.83 45.95C24.6048 45.949 24.3802 45.9725 24.16 46.0201C23.9141 46.0768 23.6733 46.1537 23.44 46.25V46.97C23.6541 46.8344 23.8864 46.73 24.13 46.66C24.3572 46.5926 24.593 46.5589 24.83 46.56C25.1132 46.5316 25.3963 46.6141 25.62 46.7901C25.7118 46.8927 25.7813 47.0132 25.8243 47.144C25.8674 47.2747 25.8829 47.413 25.87 47.55V47.66H24.96C24.4766 47.6276 23.9966 47.7617 23.6 48.0401C23.4404 48.1755 23.3148 48.3465 23.2332 48.5392C23.1515 48.732 23.1162 48.9412 23.13 49.1501C23.1219 49.3338 23.1514 49.5173 23.2167 49.6893C23.2821 49.8613 23.3819 50.0181 23.51 50.1501C23.6427 50.2772 23.7996 50.3764 23.9714 50.4417C24.1432 50.507 24.3264 50.537 24.51 50.53C24.789 50.5409 25.0657 50.4752 25.31 50.34C25.5451 50.2079 25.7363 50.0097 25.86 49.7701V50.42H26.55V47.9301C26.5577 47.6421 26.5376 47.3541 26.49 47.0701H26.5ZM25.86 48.22V48.3801C25.8804 48.7848 25.768 49.1851 25.54 49.5201C25.4345 49.6537 25.2989 49.7605 25.1442 49.8318C24.9895 49.9031 24.8202 49.9367 24.65 49.9301C24.5372 49.937 24.4241 49.9211 24.3176 49.8833C24.211 49.8455 24.1132 49.7866 24.03 49.7101C23.952 49.6295 23.8914 49.5338 23.8518 49.4289C23.8122 49.324 23.7946 49.2121 23.8 49.1001C23.792 48.9739 23.8152 48.8476 23.8675 48.7325C23.9198 48.6174 23.9997 48.517 24.1 48.44C24.3715 48.279 24.6848 48.2024 25 48.22H25.86ZM21.1 46.0101C20.8891 45.9693 20.6748 45.9492 20.46 45.95C20.0483 45.9217 19.6401 46.0424 19.31 46.2901C19.17 46.414 19.061 46.569 18.9915 46.7426C18.9221 46.9163 18.8942 47.1037 18.91 47.2901C18.8943 47.5754 18.9913 47.8555 19.18 48.0701C19.4186 48.2889 19.719 48.4286 20.04 48.47L20.29 48.53C20.9 48.65 21.2 48.88 21.2 49.22C21.2052 49.3236 21.1851 49.4268 21.1416 49.5209C21.098 49.6149 21.0323 49.697 20.95 49.7601C20.7421 49.8947 20.4974 49.9611 20.25 49.95C20.0267 49.9448 19.8049 49.9112 19.59 49.8501C19.3386 49.7669 19.0944 49.6633 18.86 49.5401V50.28C19.0995 50.3602 19.3432 50.427 19.59 50.48C19.8035 50.527 20.0215 50.5505 20.24 50.55C20.6748 50.5772 21.1047 50.4458 21.45 50.1801C21.5943 50.0576 21.7088 49.9039 21.785 49.7307C21.8613 49.5574 21.8972 49.3692 21.89 49.1801C21.8994 48.8943 21.8073 48.6144 21.63 48.39C21.4267 48.1725 21.1549 48.0313 20.86 47.9901L20.58 47.9301C20.2833 47.8975 19.9969 47.802 19.74 47.6501C19.6798 47.5968 19.633 47.5301 19.6035 47.4554C19.5739 47.3807 19.5625 47.3 19.57 47.22C19.5615 47.1278 19.5774 47.0349 19.616 46.9507C19.6546 46.8665 19.7146 46.7939 19.79 46.7401C19.9989 46.6191 20.2392 46.5634 20.48 46.58C20.6867 46.5799 20.8922 46.6102 21.09 46.67C21.2965 46.7368 21.4945 46.8274 21.68 46.94V46.19C21.4833 46.1072 21.279 46.0436 21.07 46L21.1 46.0101ZM14.51 46.53C14.2039 47.0269 14.0638 47.6083 14.11 48.19C14.0699 48.7907 14.228 49.3879 14.56 49.89C14.7172 50.0863 14.919 50.2423 15.1486 50.3449C15.3782 50.4475 15.6289 50.4938 15.88 50.48C16.1312 50.4947 16.3822 50.4487 16.612 50.346C16.8417 50.2434 17.0434 50.087 17.2 49.89C17.5356 49.3891 17.6972 48.7918 17.66 48.19C17.6972 47.5883 17.5356 46.991 17.2 46.4901C17.0434 46.2931 16.8417 46.1367 16.612 46.0341C16.3822 45.9314 16.1312 45.8854 15.88 45.9001C15.6286 45.8837 15.377 45.9289 15.147 46.0317C14.917 46.1345 14.7155 46.2918 14.56 46.4901L14.51 46.53ZM16.67 46.9301C16.8712 47.318 16.9612 47.7541 16.93 48.19C16.9604 48.6227 16.8704 49.0554 16.67 49.44C16.59 49.5769 16.4741 49.6893 16.3349 49.7651C16.1957 49.8408 16.0384 49.8771 15.88 49.87C15.7217 49.8771 15.5644 49.8408 15.4251 49.7651C15.2859 49.6893 15.17 49.5769 15.09 49.44C14.8944 49.0537 14.8047 48.6224 14.83 48.19C14.8039 47.7545 14.8936 47.3197 15.09 46.9301C15.1721 46.7958 15.2887 46.686 15.4277 46.6122C15.5666 46.5383 15.7228 46.503 15.88 46.5101C16.0372 46.503 16.1934 46.5383 16.3324 46.6122C16.4713 46.686 16.5879 46.7958 16.67 46.9301ZM11.3 45.2101H11.98V44.3H11.3V45.2101ZM11.13 51.2101C11.0766 51.2926 11.0021 51.3593 10.9141 51.4033C10.8262 51.4473 10.7281 51.4669 10.63 51.4601H9.76001V52.06H10.7C10.8794 52.0707 11.0587 52.0391 11.2237 51.9679C11.3887 51.8967 11.5347 51.7879 11.65 51.6501C11.8916 51.3098 12.0082 50.8964 11.98 50.48V46.0401H10.11V46.6001H11.29V50.48C11.3068 50.7348 11.2477 50.9889 11.12 51.2101H11.13ZM5.50001 46.53C5.16801 47.0322 5.00991 47.6294 5.05001 48.23C5.00991 48.8307 5.16801 49.4279 5.50001 49.9301C5.65771 50.1257 5.85961 50.2812 6.08911 50.3838C6.31851 50.4863 6.56901 50.533 6.82001 50.5201C7.07121 50.5347 7.32221 50.4887 7.55201 50.386C7.78171 50.2834 7.98341 50.127 8.14001 49.9301C8.47561 49.4291 8.63721 48.8318 8.60001 48.23C8.63721 47.6283 8.47561 47.031 8.14001 46.53C7.98341 46.3331 7.78171 46.1767 7.55201 46.0741C7.32221 45.9714 7.07121 45.9254 6.82001 45.94C6.56881 45.9254 6.31781 45.9714 6.08811 46.0741C5.85831 46.1767 5.65671 46.3331 5.50001 46.53ZM7.61001 46.97C7.81121 47.358 7.90121 47.7941 7.87001 48.23C7.90041 48.6627 7.81041 49.0954 7.61001 49.48C7.53001 49.6169 7.41411 49.7293 7.27491 49.8051C7.13571 49.8808 6.97841 49.9171 6.82001 49.91C6.66281 49.9187 6.50631 49.883 6.36831 49.8069C6.23041 49.7309 6.11661 49.6176 6.04001 49.48C5.83571 49.0965 5.74221 48.6637 5.77001 48.23C5.74141 47.7931 5.83491 47.3569 6.04001 46.97C6.11881 46.8351 6.23341 46.7245 6.37101 46.6504C6.50861 46.5763 6.66401 46.5416 6.82001 46.55C6.97721 46.543 7.13341 46.5783 7.27241 46.6522C7.41131 46.726 7.52791 46.8358 7.61001 46.97ZM2.24001 45.25H2.92001V44.34H2.24001V45.25ZM2.07001 51.25C2.01661 51.3326 1.94211 51.3993 1.85411 51.4433C1.76621 51.4873 1.66811 51.5069 1.57001 51.5H0.700012V52.1001H1.64001C1.81941 52.1107 1.99871 52.0791 2.16371 52.0079C2.32871 51.9367 2.47471 51.8279 2.59001 51.69C2.83161 51.3498 2.94821 50.9364 2.92001 50.5201V46.08H1.11001V46.64H2.29001V50.5201C2.30681 50.7748 2.24771 51.0289 2.12001 51.25" fill="#FF6B00"/>
<path d="M56.57 41.8H61.11V41.13H56.58L56.57 41.8ZM53.27 37.65C53.291 37.3598 53.415 37.0867 53.62 36.88C53.722 36.7664 53.847 36.6762 53.986 36.6158C54.126 36.5554 54.278 36.5261 54.43 36.53C54.575 36.5217 54.72 36.5472 54.854 36.6045C54.987 36.6618 55.106 36.7492 55.2 36.86C55.38 37.0828 55.488 37.3547 55.51 37.64L53.27 37.65ZM55.71 36.49C55.561 36.3048 55.369 36.1575 55.152 36.0601C54.935 35.9628 54.698 35.9182 54.46 35.93C54.192 35.9174 53.924 35.9668 53.678 36.0743C53.431 36.1818 53.213 36.3446 53.04 36.55C52.6627 37.0219 52.4738 37.6169 52.51 38.22C52.4761 38.8275 52.6685 39.4261 53.05 39.9C53.242 40.1056 53.477 40.2667 53.738 40.3721C53.998 40.4775 54.279 40.5245 54.56 40.51C54.796 40.5084 55.031 40.4782 55.26 40.42C55.517 40.3609 55.769 40.2772 56.01 40.17V39.46C55.769 39.596 55.514 39.7066 55.25 39.79C55.03 39.8583 54.801 39.8953 54.57 39.9C54.385 39.912 54.2 39.8832 54.027 39.8159C53.854 39.7485 53.698 39.6441 53.57 39.51C53.302 39.1405 53.188 38.682 53.25 38.23H56.19V37.88C56.182 37.3866 56.014 36.9091 55.71 36.52V36.49ZM51.45 39.46C51.3043 39.6132 51.1268 39.7327 50.93 39.81C50.727 39.8929 50.5093 39.9338 50.29 39.93C50.1003 39.9419 49.9105 39.9081 49.7366 39.8316C49.5626 39.755 49.4094 39.6379 49.29 39.49C49.0398 39.1266 48.9167 38.6906 48.94 38.25C48.9145 37.806 49.0376 37.3662 49.29 37C49.4094 36.8521 49.5626 36.735 49.7366 36.6585C49.9105 36.5819 50.1003 36.5482 50.29 36.56C50.5028 36.5562 50.714 36.5971 50.91 36.68C51.1115 36.7642 51.2948 36.8865 51.45 37.04V36.29C51.2719 36.1819 51.0802 36.0978 50.88 36.04C50.6885 35.9841 50.4896 35.9571 50.29 35.96C50.0113 35.9444 49.7326 35.99 49.4735 36.0936C49.2143 36.1973 48.981 36.3565 48.79 36.56C48.4069 37.037 48.2145 37.6392 48.25 38.25C48.2161 38.8575 48.4084 39.4561 48.79 39.93C48.9805 40.1348 49.2135 40.2955 49.4726 40.4009C49.7317 40.5062 50.0107 40.5537 50.29 40.54C50.4934 40.5407 50.6958 40.5103 50.89 40.45C51.0877 40.394 51.2763 40.3098 51.45 40.2V39.46ZM44.03 40.1C44.1439 40.2541 44.2961 40.3758 44.4715 40.4529C44.6469 40.5301 44.8395 40.5601 45.03 40.54C45.2875 40.5443 45.5407 40.4749 45.76 40.34C45.9755 40.202 46.1459 40.0038 46.25 39.77V40.42H46.94V36.07H46.25V38.53C46.2684 38.8808 46.1813 39.2291 46 39.53C45.9149 39.6446 45.8028 39.7364 45.6738 39.7975C45.5447 39.8585 45.4026 39.8869 45.26 39.88C45.144 39.8884 45.0277 39.8682 44.9213 39.8211C44.815 39.774 44.7218 39.7015 44.65 39.61C44.4995 39.3459 44.4299 39.0434 44.45 38.74V36.04H43.77V38.74C43.7406 39.2042 43.8484 39.6667 44.08 40.07L44.03 40.1ZM42.39 37.07C42.3579 36.8946 42.2898 36.7278 42.19 36.58C42.0393 36.373 41.8355 36.2106 41.6 36.11C41.3211 35.9959 41.0213 35.9414 40.72 35.95C40.4915 35.9495 40.2636 35.973 40.04 36.02C39.7941 36.0768 39.5533 36.1537 39.32 36.25V36.97C39.536 36.838 39.7679 36.7338 40.01 36.66C40.2402 36.5894 40.4793 36.5523 40.72 36.55C41.0044 36.5255 41.2873 36.6114 41.51 36.79C41.6018 36.8927 41.6713 37.0131 41.7144 37.1439C41.7574 37.2747 41.7729 37.413 41.76 37.55V37.66H40.85C40.3635 37.6277 39.8804 37.7617 39.48 38.04C39.323 38.1749 39.1997 38.3446 39.1199 38.5356C39.04 38.7265 39.0058 38.9335 39.02 39.14C39.0107 39.3239 39.0396 39.5078 39.1051 39.6799C39.1705 39.852 39.2709 40.0087 39.4 40.14C39.5324 40.2677 39.6892 40.3672 39.8611 40.4325C40.033 40.4978 40.2163 40.5276 40.4 40.52C40.6784 40.5248 40.9535 40.4594 41.2 40.33C41.433 40.1952 41.6236 39.9977 41.75 39.76V40.4H42.43V37.91C42.4345 37.6258 42.4178 37.3417 42.38 37.06L42.39 37.07ZM41.75 38.21V38.37C41.7721 38.7764 41.6557 39.1783 41.42 39.51C41.3166 39.6435 41.1828 39.7504 41.0297 39.8217C40.8767 39.893 40.7088 39.9267 40.54 39.92C40.3094 39.9312 40.0836 39.8523 39.91 39.7C39.8338 39.6186 39.775 39.5226 39.7372 39.4177C39.6993 39.3128 39.6833 39.2013 39.69 39.09C39.682 38.9638 39.7052 38.8376 39.7575 38.7225C39.8098 38.6074 39.8897 38.5069 39.99 38.43C40.259 38.2629 40.5743 38.1859 40.89 38.21H41.75ZM36.99 36C36.7791 35.9598 36.5648 35.9397 36.35 35.94C35.9383 35.9117 35.5302 36.0324 35.2 36.28C35.057 36.402 34.9451 36.5564 34.8738 36.7303C34.8025 36.9043 34.7738 37.0927 34.79 37.28C34.7759 37.5682 34.8725 37.8508 35.06 38.07C35.3 38.2867 35.5997 38.4261 35.92 38.47L36.18 38.53C36.78 38.6567 37.08 38.8867 37.08 39.22C37.0864 39.3227 37.0679 39.4254 37.0261 39.5194C36.9843 39.6134 36.9205 39.6959 36.84 39.76C36.6355 39.9028 36.3891 39.9732 36.14 39.96C35.9158 39.956 35.6934 39.9189 35.48 39.85C35.2263 39.7731 34.9816 39.6691 34.75 39.54V40.28C34.989 40.3645 35.2327 40.4346 35.48 40.49C35.6909 40.532 35.9051 40.5554 36.12 40.56C36.5573 40.5817 36.9885 40.4509 37.34 40.19C37.483 40.067 37.5961 39.913 37.6706 39.7397C37.7451 39.5664 37.7791 39.3784 37.77 39.19C37.7859 38.9033 37.6931 38.6212 37.51 38.4C37.3083 38.1804 37.0357 38.0388 36.74 38L36.47 37.94C36.1707 37.9051 35.8815 37.8098 35.62 37.66C35.5614 37.6035 35.5158 37.5348 35.4864 37.4588C35.4571 37.3828 35.4446 37.3013 35.45 37.22C35.4455 37.1272 35.4642 37.0347 35.5044 36.9509C35.5445 36.8671 35.6049 36.7947 35.68 36.74C35.891 36.6253 36.1304 36.5732 36.37 36.59C36.5726 36.5914 36.7742 36.6182 36.97 36.67C37.178 36.7329 37.3765 36.8237 37.56 36.94V36.24C37.3662 36.1586 37.1654 36.095 36.96 36.05L36.99 36ZM30.4 36.57C30.0602 37.0728 29.8983 37.6747 29.94 38.28C29.8983 38.8822 30.0603 39.481 30.4 39.98C30.5567 40.1769 30.7583 40.3333 30.9881 40.436C31.2178 40.5387 31.4688 40.5847 31.72 40.57C31.971 40.583 32.2215 40.5363 32.451 40.4337C32.6804 40.3312 32.8823 40.1757 33.04 39.98C33.372 39.4779 33.5301 38.8807 33.49 38.28C33.5317 37.6747 33.3698 37.0728 33.03 36.57C32.8744 36.3751 32.6741 36.2206 32.4461 36.1196C32.218 36.0186 31.9689 35.9742 31.72 35.99C31.4696 35.9734 31.2188 36.0174 30.989 36.1184C30.7592 36.2194 30.5572 36.3743 30.4 36.57ZM32.5 37.02C32.7052 37.4068 32.7987 37.8431 32.77 38.28C32.7978 38.7137 32.7043 39.1465 32.5 39.53C32.4225 39.6668 32.3086 39.7794 32.1709 39.8554C32.0332 39.9313 31.8771 39.9675 31.72 39.96C31.5617 39.9671 31.4044 39.9308 31.2651 39.855C31.1259 39.7792 31.01 39.6669 30.93 39.53C30.7257 39.1465 30.6322 38.7137 30.66 38.28C30.6314 37.8431 30.7249 37.4068 30.93 37.02C31.01 36.8832 31.1259 36.7708 31.2651 36.695C31.4044 36.6192 31.5617 36.5829 31.72 36.59C31.8771 36.5825 32.0332 36.6188 32.1709 36.6947C32.3086 36.7706 32.4225 36.8832 32.5 37.02ZM27.13 35.3H27.81V34.39H27.11L27.13 35.3ZM26.97 41.3C26.9134 41.3786 26.8379 41.4417 26.7506 41.4837C26.6632 41.5256 26.5668 41.545 26.47 41.54H25.6V42.15H26.54C26.7181 42.1623 26.8966 42.1315 27.0602 42.0601C27.2238 41.9887 27.3679 41.8789 27.48 41.74C27.7216 41.3997 27.8382 40.9864 27.81 40.57V36.13H25.96V36.69H27.11V40.57C27.1293 40.8238 27.0737 41.0776 26.95 41.3H26.97ZM21.33 36.61C20.9951 37.1149 20.8336 37.7152 20.87 38.32C20.8329 38.9218 20.9945 39.5191 21.33 40.02C21.4867 40.2169 21.6883 40.3733 21.9181 40.476C22.1478 40.5787 22.3988 40.6246 22.65 40.61C22.901 40.623 23.1515 40.5763 23.381 40.4737C23.6104 40.3712 23.8123 40.2157 23.97 40.02C24.3021 39.5179 24.4601 38.9207 24.42 38.32C24.4594 37.7163 24.3015 37.1161 23.97 36.61C23.8113 36.4162 23.6089 36.2626 23.3795 36.1618C23.1501 36.061 22.9002 36.0158 22.65 36.03C22.3996 36.0134 22.1488 36.0574 21.919 36.1584C21.6892 36.2593 21.4872 36.4143 21.33 36.61ZM23.43 37.06C23.6352 37.4468 23.7287 37.8831 23.7 38.32C23.7278 38.7537 23.6344 39.1865 23.43 39.57C23.3525 39.7068 23.2386 39.8194 23.1009 39.8954C22.9632 39.9713 22.8071 40.0075 22.65 40C22.4917 40.0071 22.3344 39.9708 22.1951 39.895C22.0559 39.8193 21.94 39.7069 21.86 39.57C21.6597 39.1853 21.5697 38.7527 21.6 38.32C21.5689 37.8841 21.6588 37.448 21.86 37.06C21.94 36.9232 22.0559 36.8108 22.1951 36.735C22.3344 36.6592 22.4917 36.6229 22.65 36.63C22.8071 36.6225 22.9632 36.6588 23.1009 36.7347C23.2386 36.8106 23.3525 36.9232 23.43 37.06ZM18.06 35.34H18.74V34.43H18.11L18.06 35.34ZM17.9 41.34C17.8434 41.4186 17.7679 41.4817 17.6806 41.5237C17.5932 41.5656 17.4968 41.585 17.4 41.58H16.53V42.19H17.47C17.6481 42.2023 17.8266 42.1715 17.9902 42.1001C18.1539 42.0287 18.2979 41.9189 18.41 41.78C18.6516 41.4397 18.7682 41.0264 18.74 40.61V36.17H16.89V36.73H18.11V40.61C18.1293 40.8638 18.0737 41.1176 17.95 41.34H17.9ZM15.73 37.01C15.7551 36.5039 15.5871 36.0071 15.26 35.62C15.1067 35.4471 14.9167 35.3107 14.7039 35.2208C14.4911 35.1308 14.2608 35.0895 14.03 35.1C13.669 35.0889 13.3106 35.1649 12.9851 35.3215C12.6596 35.4782 12.3766 35.7109 12.16 36C11.6683 36.708 11.4256 37.5592 11.47 38.42C11.4251 39.3025 11.6983 40.1719 12.24 40.87C12.4946 41.1655 12.8111 41.4012 13.1672 41.5602C13.5233 41.7192 13.9101 41.7977 14.3 41.79C14.4965 41.803 14.6936 41.803 14.89 41.79H15.51V41.23H14.86C14.6736 41.2431 14.4865 41.2431 14.3 41.23C13.9812 41.2458 13.6633 41.185 13.3727 41.0528C13.0822 40.9206 12.8275 40.7208 12.63 40.47C12.2056 39.8919 11.9905 39.1866 12.02 38.47C11.9863 37.7633 12.1751 37.0637 12.56 36.47C12.7187 36.2327 12.9349 36.0395 13.1885 35.9083C13.442 35.7772 13.7247 35.7124 14.01 35.72C14.1715 35.7167 14.3318 35.7479 14.4801 35.8118C14.6285 35.8756 14.7614 35.9705 14.87 36.09C15.0953 36.373 15.2092 36.7288 15.19 37.09V37.34C15.1035 37.1787 14.9713 37.0465 14.81 36.96C14.6444 36.8704 14.4583 36.8255 14.27 36.83C14.078 36.8233 13.8871 36.8625 13.7133 36.9442C13.5394 37.0259 13.3874 37.1479 13.27 37.3C12.9995 37.6399 12.861 38.0661 12.88 38.5C12.861 38.934 12.9995 39.3602 13.27 39.7C13.3869 39.8533 13.5385 39.9768 13.7123 40.0602C13.8861 40.1437 14.0773 40.1847 14.27 40.18C14.4591 40.181 14.6452 40.1327 14.81 40.04C14.9736 39.9566 15.1066 39.8236 15.19 39.66V40.1H15.73V37.01ZM14.97 39.22C14.8961 39.3161 14.8004 39.3933 14.691 39.4455C14.5815 39.4976 14.4612 39.5232 14.34 39.52C14.2171 39.5248 14.0949 39.5 13.9836 39.4478C13.8722 39.3956 13.775 39.3175 13.7 39.22C13.5327 38.9844 13.4515 38.6984 13.47 38.41C13.453 38.1249 13.5342 37.8426 13.7 37.61C13.7733 37.5101 13.87 37.4296 13.9815 37.3755C14.0931 37.3215 14.2162 37.2956 14.34 37.3C14.4624 37.2964 14.5837 37.3227 14.6935 37.3767C14.8034 37.4308 14.8983 37.5109 14.97 37.61C15.1394 37.8413 15.2241 38.1237 15.21 38.41C15.2256 38.6996 15.1409 38.9857 14.97 39.22Z" fill="#FF6B00"/>
<path d="M60.11 27.68C60.128 27.3861 60.252 27.1087 60.46 26.9C60.564 26.7897 60.689 26.7025 60.829 26.6439C60.968 26.5853 61.119 26.5567 61.27 26.56C61.415 26.5517 61.56 26.5772 61.694 26.6344C61.827 26.6917 61.946 26.7792 62.04 26.89C62.22 27.1128 62.328 27.3847 62.35 27.67L60.11 27.68ZM62.55 26.52C62.401 26.3341 62.21 26.1857 61.993 26.0868C61.776 25.9878 61.538 25.941 61.3 25.95C61.031 25.9386 60.763 25.9895 60.516 26.0988C60.27 26.208 60.052 26.3727 59.88 26.58C59.501 27.0478 59.309 27.639 59.34 28.24C59.302 28.8527 59.499 29.4568 59.89 29.93C60.083 30.1343 60.318 30.2939 60.578 30.3976C60.839 30.5012 61.12 30.5464 61.4 30.53C61.632 30.5318 61.864 30.505 62.09 30.45C62.347 30.3909 62.599 30.3071 62.84 30.2V29.49C62.598 29.6237 62.343 29.7342 62.08 29.82C61.86 29.8898 61.631 29.9269 61.4 29.93C61.215 29.9433 61.029 29.9152 60.856 29.8478C60.683 29.7803 60.527 29.6752 60.4 29.54C60.129 29.1719 60.011 28.7133 60.07 28.26H63.07V27.91C63.062 27.4165 62.894 26.9391 62.59 26.55L62.55 26.52ZM58.33 29.49C58.183 29.6411 58.006 29.7602 57.81 29.84C57.607 29.9229 57.389 29.9637 57.17 29.96C56.98 29.9718 56.791 29.9381 56.617 29.8615C56.443 29.785 56.289 29.6678 56.17 29.52C55.918 29.1538 55.794 28.714 55.82 28.27C55.797 27.8293 55.92 27.3934 56.17 27.03C56.288 26.8808 56.441 26.7628 56.616 26.6861C56.79 26.6094 56.98 26.5764 57.17 26.59C57.382 26.5879 57.592 26.6252 57.79 26.7C57.99 26.7917 58.172 26.9168 58.33 27.07V26.32C58.154 26.2074 57.962 26.1231 57.76 26.07C57.569 26.0106 57.37 25.9803 57.17 25.98C56.891 25.9662 56.612 26.0137 56.353 26.1191C56.093 26.2245 55.861 26.3852 55.67 26.59C55.281 27.0601 55.084 27.6605 55.12 28.27C55.082 28.8827 55.279 29.4868 55.67 29.96C55.861 30.1635 56.094 30.3227 56.353 30.4264C56.613 30.53 56.891 30.5756 57.17 30.56C57.37 30.5629 57.568 30.5359 57.76 30.48C57.962 30.426 58.154 30.3417 58.33 30.23V29.49ZM50.91 30.13C51.0192 30.276 51.1636 30.392 51.3297 30.4672C51.4958 30.5424 51.6782 30.5743 51.86 30.56C52.1165 30.5673 52.3697 30.5014 52.59 30.37C52.8055 30.2319 52.9759 30.0338 53.08 29.8V30.45H53.77V26.1H53.08V28.56C53.098 28.9108 53.011 29.2591 52.83 29.56C52.7449 29.6745 52.6328 29.7664 52.5038 29.8274C52.3747 29.8885 52.2326 29.9168 52.09 29.91C51.9728 29.9201 51.855 29.8996 51.7481 29.8505C51.6411 29.8014 51.5488 29.7254 51.48 29.63C51.328 29.3701 51.2583 29.0703 51.28 28.77V26.07H50.6V28.77C50.567 29.2344 50.675 29.698 50.91 30.1V30.13ZM49.21 27.1C49.1805 26.9269 49.1121 26.7628 49.01 26.62C48.8614 26.4086 48.6572 26.2425 48.42 26.14C48.1402 26.0288 47.8411 25.9744 47.54 25.98C47.3145 25.9831 47.0899 26.0099 46.87 26.06C46.6241 26.1167 46.3833 26.1936 46.15 26.29V27C46.3665 26.8714 46.5983 26.7706 46.84 26.7C47.0669 26.6301 47.3026 26.5931 47.54 26.59C47.8275 26.5649 48.1138 26.6507 48.34 26.83C48.5179 27.0379 48.6076 27.3069 48.59 27.58V27.7H47.67C47.1861 27.6624 46.7044 27.797 46.31 28.08C46.153 28.2149 46.0297 28.3846 45.9498 28.5755C45.87 28.7665 45.8358 28.9735 45.85 29.18C45.8417 29.3629 45.8702 29.5457 45.9337 29.7174C45.9973 29.8892 46.0946 30.0465 46.22 30.18C46.3535 30.3054 46.5108 30.4027 46.6825 30.4662C46.8543 30.5298 47.0371 30.5583 47.22 30.55C47.5009 30.5591 47.7795 30.4972 48.03 30.37C48.2608 30.2323 48.4507 30.0355 48.58 29.8V30.44H49.26V27.95C49.2673 27.662 49.2472 27.3741 49.2 27.09L49.21 27.1ZM48.58 28.25V28.41C48.599 28.8129 48.4829 29.2106 48.25 29.54C48.1502 29.6774 48.0171 29.7872 47.8631 29.8589C47.7091 29.9307 47.5394 29.962 47.37 29.95C47.1408 29.9639 46.9151 29.8886 46.74 29.74C46.6638 29.6586 46.605 29.5625 46.5672 29.4576C46.5293 29.3528 46.5133 29.2413 46.52 29.13C46.5111 29.0037 46.5339 28.8772 46.5862 28.7619C46.6386 28.6466 46.719 28.5463 46.82 28.47C47.089 28.3029 47.4043 28.2258 47.72 28.25H48.58ZM43.82 26.04C43.6094 25.9964 43.3951 25.9729 43.18 25.97C42.7657 25.9462 42.3559 26.0663 42.02 26.31C41.8819 26.4354 41.774 26.5906 41.7047 26.7639C41.6354 26.9371 41.6065 27.1239 41.62 27.31C41.6043 27.5953 41.7012 27.8754 41.89 28.09C42.1288 28.3103 42.4286 28.4532 42.75 28.5L43.01 28.56C43.61 28.6866 43.91 28.9166 43.91 29.25C43.9152 29.3535 43.8951 29.4567 43.8516 29.5508C43.808 29.6449 43.7423 29.7269 43.66 29.79C43.4556 29.9321 43.2083 29.9992 42.96 29.98C42.7396 29.9788 42.5206 29.9451 42.31 29.88C42.0556 29.8049 41.8107 29.7009 41.58 29.57V30.31C41.819 30.3944 42.0627 30.4645 42.31 30.52C42.5211 30.5593 42.7353 30.5794 42.95 30.58C43.3699 30.5861 43.7792 30.4485 44.11 30.19C44.2543 30.0675 44.3688 29.9138 44.4451 29.7406C44.5213 29.5674 44.5572 29.3791 44.55 29.19C44.5612 28.9039 44.4689 28.6235 44.29 28.4C44.0867 28.1806 43.8155 28.0362 43.52 27.99L43.25 27.94C42.9502 27.907 42.6607 27.8116 42.4 27.66C42.3414 27.6034 42.2958 27.5347 42.2664 27.4587C42.2371 27.3827 42.2246 27.3013 42.23 27.22C42.2255 27.1272 42.2442 27.0347 42.2843 26.9509C42.3245 26.8671 42.3849 26.7946 42.46 26.74C42.6698 26.6212 42.9094 26.5657 43.15 26.58C43.3533 26.5805 43.5555 26.6108 43.75 26.67C43.9573 26.7348 44.1555 26.8255 44.34 26.94V26.24C44.1462 26.1586 43.9454 26.095 43.74 26.05L43.82 26.04ZM32.65 26.57C32.318 27.0721 32.1599 27.6693 32.2 28.27C32.1592 28.8738 32.3172 29.4744 32.65 29.98C32.8071 30.1757 33.0092 30.3307 33.239 30.4316C33.4688 30.5326 33.7196 30.5766 33.97 30.56C34.2205 30.5766 34.4712 30.5326 34.701 30.4316C34.9309 30.3307 35.1329 30.1757 35.29 29.98C35.6228 29.4744 35.7809 28.8738 35.74 28.27C35.7801 27.6693 35.622 27.0721 35.29 26.57C35.1323 26.3743 34.9304 26.2188 34.701 26.1163C34.4715 26.0137 34.221 25.967 33.97 25.98C33.7188 25.9653 33.4678 26.0113 33.2381 26.114C33.0083 26.2167 32.8066 26.3731 32.65 26.57ZM34.76 27.02C34.9556 27.4063 35.0454 27.8377 35.02 28.27C35.0462 28.7056 34.9565 29.1403 34.76 29.53C34.6784 29.6653 34.5622 29.7765 34.4233 29.8521C34.2845 29.9277 34.128 29.9649 33.97 29.96C33.812 29.9649 33.6555 29.9277 33.5167 29.8521C33.3778 29.7765 33.2617 29.6653 33.18 29.53C32.9836 29.1403 32.8939 28.7056 32.92 28.27C32.8947 27.8377 32.9844 27.4063 33.18 27.02C33.26 26.8831 33.3759 26.7707 33.5151 26.695C33.6544 26.6192 33.8117 26.5829 33.97 26.59C34.1284 26.5829 34.2857 26.6192 34.4249 26.695C34.5641 26.7707 34.68 26.8831 34.76 27.02ZM28.76 24.85V26.09H27.65V26.65H28.76V29.01C28.7193 29.409 28.83 29.8087 29.07 30.13C29.3748 30.3729 29.7621 30.4877 30.15 30.45H30.98V29.88H30.22C30.1107 29.8919 30.0002 29.8812 29.8952 29.8485C29.7903 29.8158 29.6932 29.7619 29.61 29.69C29.4732 29.4912 29.4128 29.2497 29.44 29.01V26.65H30.98V26.09H29.44V24.85H28.76ZM26.5 27.1C26.4661 26.9282 26.3981 26.765 26.3 26.62C26.1492 26.4106 25.9456 26.245 25.71 26.14C25.43 26.0296 25.131 25.9752 24.83 25.98C24.6045 25.9825 24.3798 26.0093 24.16 26.06C23.9141 26.1167 23.6733 26.1936 23.44 26.29V27C23.6565 26.8714 23.8883 26.7706 24.13 26.7C24.3567 26.6293 24.5926 26.5922 24.83 26.59C25.1145 26.5644 25.3978 26.6504 25.62 26.83C25.7105 26.9314 25.7793 27.0503 25.8223 27.1792C25.8653 27.3082 25.8815 27.4445 25.87 27.58V27.7H24.96C24.4761 27.6624 23.9944 27.797 23.6 28.08C23.4368 28.2134 23.3073 28.3835 23.2222 28.5763C23.137 28.7692 23.0986 28.9795 23.11 29.19C23.103 29.3736 23.1331 29.5568 23.1984 29.7286C23.2637 29.9004 23.3628 30.0573 23.49 30.19C23.6235 30.3154 23.7808 30.4127 23.9525 30.4762C24.1243 30.5398 24.3071 30.5683 24.49 30.56C24.7677 30.5691 25.043 30.5072 25.29 30.38C25.523 30.2451 25.7136 30.0476 25.84 29.81V30.45H26.53V27.96C26.5373 27.6721 26.5172 27.3841 26.47 27.1H26.5ZM25.84 28.26V28.42C25.8619 28.8217 25.7493 29.2193 25.52 29.55C25.4156 29.6849 25.2802 29.7926 25.1252 29.864C24.9703 29.9354 24.8004 29.9683 24.63 29.96C24.404 29.9723 24.182 29.8971 24.01 29.75C23.932 29.6694 23.8713 29.5737 23.8318 29.4688C23.7922 29.3639 23.7746 29.252 23.78 29.14C23.7711 29.0137 23.7939 28.8872 23.8463 28.7719C23.8986 28.6566 23.979 28.5563 24.08 28.48C24.3496 28.3141 24.6644 28.2372 24.98 28.26H25.84ZM20.3 26.12C20.1622 26.0246 19.9976 25.9756 19.83 25.98C19.6795 25.9756 19.5318 26.0213 19.41 26.11C19.2841 26.2017 19.1814 26.3215 19.11 26.46V26.09H18.49V30.45H19.11V27.95C19.0851 27.5704 19.1188 27.1893 19.21 26.82C19.2396 26.7448 19.2924 26.6809 19.3607 26.6378C19.4291 26.5946 19.5094 26.5744 19.59 26.58C19.6679 26.5756 19.7454 26.5941 19.8129 26.6332C19.8804 26.6723 19.935 26.7302 19.97 26.8C20.0636 27.1757 20.0974 27.5638 20.07 27.95V30.45H20.69V27.95C20.6663 27.5698 20.7035 27.1884 20.8 26.82C20.8361 26.7433 20.8946 26.6793 20.9678 26.6364C21.041 26.5936 21.1254 26.5739 21.21 26.58C21.2864 26.5764 21.3621 26.5966 21.4266 26.6378C21.491 26.679 21.5412 26.7391 21.57 26.81C21.6524 27.184 21.6826 27.5676 21.66 27.95V30.45H22.28V27.92C22.319 27.4016 22.2509 26.8809 22.08 26.39C22.0163 26.2584 21.9146 26.149 21.788 26.0759C21.6614 26.0028 21.5158 25.9694 21.37 25.98C21.2058 25.977 21.0448 26.026 20.91 26.12C20.7691 26.226 20.6586 26.3675 20.59 26.53C20.5332 26.3691 20.4328 26.2271 20.3 26.12ZM14.52 26.57C14.188 27.0721 14.0299 27.6693 14.07 28.27C14.0292 28.8738 14.1872 29.4744 14.52 29.98C14.6777 30.1751 14.8798 30.3296 15.1095 30.4305C15.3392 30.5314 15.5897 30.5758 15.84 30.56C16.0905 30.5766 16.3412 30.5326 16.571 30.4316C16.8008 30.3307 17.0029 30.1757 17.16 29.98C17.4963 29.4757 17.6579 28.875 17.62 28.27C17.6572 27.6682 17.4956 27.0709 17.16 26.57C17.0023 26.3743 16.8004 26.2188 16.571 26.1163C16.3415 26.0137 16.091 25.967 15.84 25.98C15.5889 25.9662 15.3382 26.0125 15.1086 26.1151C14.879 26.2177 14.6772 26.3737 14.52 26.57ZM16.63 27.02C16.8304 27.4047 16.9204 27.8373 16.89 28.27C16.9212 28.7059 16.8312 29.142 16.63 29.53C16.5484 29.6653 16.4322 29.7765 16.2933 29.8521C16.1545 29.9277 15.998 29.9649 15.84 29.96C15.6831 29.9663 15.5275 29.9296 15.39 29.8538C15.2525 29.778 15.1384 29.666 15.06 29.53C14.8549 29.1431 14.7614 28.7069 14.79 28.27C14.7622 27.8363 14.8557 27.4035 15.06 27.02C15.1366 26.8824 15.2504 26.7691 15.3883 26.6931C15.5263 26.6171 15.6828 26.5813 15.84 26.59C15.9984 26.5829 16.1557 26.6192 16.2949 26.695C16.4341 26.7707 16.55 26.8831 16.63 27.02ZM10.63 24.85V26.09H9.51999V26.65H10.63V29.01C10.5893 29.409 10.7 29.8087 10.94 30.13C11.2448 30.3729 11.6321 30.4877 12.02 30.45H12.85V29.88H12.11C12.0007 29.8919 11.8902 29.8812 11.7852 29.8485C11.6803 29.8158 11.5832 29.7619 11.5 29.69C11.3671 29.4895 11.3071 29.2494 11.33 29.01V26.65H12.87V26.09H11.33V24.85H10.63Z" fill="#FF6B00"/>
</svg>
