<svg width="347" height="557" viewBox="0 0 347 557" fill="none" xmlns="http://www.w3.org/2000/svg">
<g clip-path="url(#clip0_2_116)">
<path d="M185.565 185.912C202.139 186.444 214.043 172.043 211.847 155.516C209.651 138.989 199.688 124.866 187.738 124.565C175.788 124.265 165.317 137.556 161.988 153.921C158.66 170.286 168.923 184.918 185.565 185.843" fill="#FF6B00"/>
<path d="M65.5534 307.38C65.5534 312.003 66.4087 315.424 68.0961 317.366C69.7835 319.307 72.719 320.255 76.8103 320.255H83.5367V315.123H77.3651C76.4722 315.226 75.5676 315.125 74.7191 314.829C73.8705 314.533 73.0999 314.049 72.4648 313.413C71.342 311.613 70.8463 309.491 71.0548 307.38V286.138H83.5367V281.145H71.0085V270.05H65.5534V281.145H56.6311V286.138H65.5534V307.38Z" fill="#FF6B00"/>
<path d="M93.8921 289.466C94.5049 288.315 95.4191 287.353 96.5367 286.682C97.6544 286.011 98.9335 285.656 100.237 285.656C101.541 285.656 102.82 286.011 103.938 286.682C105.055 287.353 105.969 288.315 106.582 289.466C109.449 296.705 109.449 304.764 106.582 312.003C105.969 313.154 105.055 314.116 103.938 314.787C102.82 315.458 101.541 315.813 100.237 315.813C98.9335 315.813 97.6544 315.458 96.5367 314.787C95.4191 314.116 94.5049 313.154 93.8921 312.003C91.0254 304.764 91.0254 296.705 93.8921 289.466ZM100.226 321.272C102.301 321.375 104.369 320.947 106.233 320.029C108.098 319.111 109.698 317.733 110.881 316.025C113.332 312.511 114.557 307.419 114.557 300.746C114.557 294.074 113.324 288.981 110.858 285.467C109.612 283.829 108.004 282.501 106.159 281.587C104.315 280.672 102.284 280.197 100.226 280.197C98.167 280.197 96.1363 280.672 94.2919 281.587C92.4474 282.501 90.8393 283.829 89.5928 285.467C86.8613 290.076 85.5806 295.4 85.9175 300.746C85.9175 307.434 87.1426 312.527 89.5928 316.025C90.7715 317.733 92.3669 319.111 94.2277 320.029C96.0885 320.948 98.1531 321.375 100.226 321.272Z" fill="#FF6B00"/>
<path d="M125.051 297.926C124.845 294.52 125.133 291.102 125.906 287.779C126.133 287.166 126.538 286.636 127.068 286.255C127.599 285.874 128.231 285.66 128.883 285.64C129.536 285.62 130.18 285.796 130.732 286.144C131.285 286.492 131.721 286.997 131.985 287.594C132.78 290.977 133.069 294.459 132.84 297.926V320.301H137.856V297.926C137.654 294.519 137.95 291.1 138.735 287.779C138.974 287.113 139.424 286.542 140.016 286.155C140.608 285.767 141.311 285.582 142.017 285.629C142.65 285.6 143.274 285.782 143.793 286.146C144.311 286.51 144.695 287.035 144.883 287.64C145.609 291.017 145.873 294.478 145.669 297.926V320.301H150.685V297.649C150.986 292.964 150.43 288.264 149.044 283.78C148.596 282.653 147.807 281.695 146.787 281.04C145.768 280.385 144.568 280.066 143.358 280.128C141.992 280.093 140.654 280.525 139.567 281.353C138.394 282.332 137.508 283.61 137.001 285.051C136.585 283.63 135.785 282.35 134.69 281.353C133.616 280.515 132.283 280.081 130.922 280.128C129.705 280.112 128.518 280.503 127.547 281.237C126.484 282.086 125.643 283.181 125.097 284.427V281.075H120.058V320.186H125.051V297.926Z" fill="#FF6B00"/>
<path d="M178.931 302.041C179.113 305.62 178.193 309.17 176.296 312.211C175.516 313.38 174.45 314.33 173.201 314.973C171.951 315.616 170.558 315.931 169.154 315.886C168.224 315.94 167.294 315.795 166.425 315.46C165.556 315.125 164.768 314.608 164.115 313.945C162.82 312.424 162.166 310.46 162.289 308.466C162.206 307.359 162.382 306.248 162.803 305.221C163.224 304.194 163.879 303.279 164.716 302.549C166.842 301.09 169.402 300.397 171.974 300.584H178.908L178.931 302.041ZM171.535 295.568C167.578 295.284 163.659 296.496 160.555 298.966C159.243 300.245 158.225 301.795 157.574 303.508C156.924 305.221 156.655 307.055 156.787 308.883C156.618 312.167 157.71 315.391 159.839 317.897C160.879 319.035 162.159 319.928 163.586 320.511C165.012 321.095 166.551 321.355 168.091 321.272C170.369 321.342 172.621 320.765 174.586 319.608C176.513 318.343 178.05 316.566 179.024 314.476V320.255H184.525V297.926C184.578 295.352 184.423 292.778 184.063 290.229C183.809 288.697 183.26 287.228 182.445 285.906C181.239 284.1 179.56 282.661 177.591 281.746C175.364 280.738 172.938 280.248 170.494 280.313C168.67 280.321 166.853 280.554 165.086 281.006C163.081 281.512 161.124 282.192 159.238 283.04V289.466C160.97 288.302 162.852 287.377 164.831 286.715C166.657 286.102 168.568 285.782 170.494 285.768C171.648 285.668 172.811 285.803 173.911 286.164C175.012 286.526 176.027 287.106 176.897 287.871C178.396 289.805 179.121 292.228 178.931 294.667V295.615L171.535 295.568Z" fill="#FF6B00"/>
<path d="M197.1 307.38C197.1 312.003 197.932 315.424 199.642 317.366C201.353 319.307 204.265 320.255 208.356 320.255H215.06V315.123H208.888C207.995 315.224 207.091 315.123 206.243 314.827C205.395 314.531 204.624 314.048 203.988 313.413C202.876 311.608 202.381 309.491 202.578 307.38V286.138H215.06V281.145H202.578V270.05H197.1V281.145H188.177V286.138H197.1V307.38Z" fill="#FF6B00"/>
<path d="M229.09 289.466C229.703 288.315 230.617 287.353 231.735 286.682C232.853 286.011 234.132 285.656 235.435 285.656C236.739 285.656 238.018 286.011 239.136 286.682C240.253 287.353 241.168 288.315 241.78 289.466C244.647 296.705 244.647 304.764 241.78 312.003C241.168 313.154 240.253 314.116 239.136 314.787C238.018 315.458 236.739 315.813 235.435 315.813C234.132 315.813 232.853 315.458 231.735 314.787C230.617 314.116 229.703 313.154 229.09 312.003C226.224 304.764 226.224 296.705 229.09 289.466V289.466ZM235.424 321.272C237.499 321.375 239.567 320.947 241.432 320.029C243.296 319.111 244.896 317.733 246.08 316.025C248.53 312.511 249.755 307.419 249.755 300.746C249.755 294.074 248.522 288.981 246.057 285.467C244.81 283.829 243.202 282.501 241.358 281.587C239.513 280.672 237.482 280.197 235.424 280.197C233.365 280.197 231.334 280.672 229.49 281.587C227.646 282.501 226.037 283.829 224.791 285.467C222.059 290.076 220.779 295.4 221.116 300.746C221.116 307.434 222.341 312.527 224.791 316.025C225.97 317.733 227.565 319.111 229.426 320.029C231.287 320.948 233.351 321.375 235.424 321.272" fill="#FF6B00"/>
<path d="M87.6974 466.433C86.5928 465.69 85.4061 465.077 84.1608 464.607C83.4681 464.309 82.7185 464.167 81.9649 464.19C81.4352 464.273 80.9159 464.412 80.4162 464.607C79.8384 464.815 79.3299 465.023 78.8213 465.254C78.3128 465.485 77.9199 465.716 77.55 465.924C77.3142 466.048 77.0964 466.203 76.9028 466.386C76.7688 466.601 76.6829 466.843 76.651 467.094C76.619 467.346 76.6419 467.601 76.7179 467.843C76.8986 468.616 77.2284 469.346 77.6887 469.992C78.3579 470.962 79.1332 471.853 80.0002 472.651C81.097 473.745 82.2797 474.75 83.5367 475.655C85.2572 476.907 87.0393 478.072 88.8763 479.146C90.6792 480.186 92.3897 481.087 94.054 481.85C95.5626 482.551 97.1055 483.176 98.6769 483.722C99.9671 484.143 101.289 484.46 102.63 484.67C103.594 484.831 104.578 484.831 105.542 484.67C106.498 484.502 107.435 484.239 108.339 483.884C109.152 483.592 109.928 483.204 110.65 482.729C111.196 482.388 111.68 481.958 112.083 481.457C112.545 480.776 112.779 479.968 112.754 479.146C112.778 478.077 112.614 477.013 112.268 476.002C111.829 474.639 111.24 473.329 110.512 472.096C109.626 470.539 108.629 469.048 107.53 467.635C106.328 466.109 105.218 464.791 104.34 463.705C103.462 462.619 102.676 461.694 102.029 460.931C101.553 460.368 101.163 459.737 100.873 459.059C100.754 458.868 100.691 458.648 100.691 458.423C100.691 458.199 100.754 457.978 100.873 457.788C101.18 457.471 101.589 457.274 102.029 457.233C102.795 457.128 103.573 457.128 104.34 457.233C105.378 457.356 106.406 457.557 107.414 457.834C108.675 458.172 109.911 458.596 111.113 459.105C112.541 459.712 113.937 460.391 115.296 461.139C116.831 461.998 118.313 462.948 119.734 463.982L120.705 464.722L121.468 465.323C119.827 465.323 118.532 465.184 117.585 465.161C116.637 465.138 116.059 465.323 115.805 465.67C115.551 466.017 115.62 466.34 116.013 466.641C116.31 466.825 116.657 466.914 117.007 466.895C117.628 466.913 118.247 466.982 118.856 467.103C120.181 467.321 121.493 467.615 122.786 467.981C123.618 468.246 124.468 468.454 125.328 468.605C126.413 468.817 127.538 468.654 128.518 468.143C129.55 467.586 130.437 466.794 131.107 465.832C131.196 465.656 131.243 465.462 131.243 465.265C131.243 465.069 131.196 464.874 131.107 464.699C130.87 464.067 130.526 463.48 130.09 462.965C129.465 462.193 128.785 461.467 128.056 460.793C127.078 459.904 126.052 459.071 124.981 458.296C123.078 456.901 121.069 455.657 118.972 454.575C117.023 453.57 115.016 452.682 112.962 451.917C111.223 451.267 109.438 450.749 107.622 450.368C106.301 450.087 104.951 449.963 103.6 449.998C102.096 450.146 100.655 450.679 99.4166 451.547C97.973 452.538 96.7136 453.774 95.6951 455.199C95.2322 455.774 94.9867 456.495 95.0017 457.233C95.0518 458.043 95.2807 458.833 95.672 459.544C96.2334 460.602 96.8994 461.601 97.6599 462.526C98.5382 463.636 99.6246 464.838 100.919 466.363C102.213 467.889 103.439 469.206 104.432 470.385C105.426 471.564 106.235 472.697 106.86 473.529C107.367 474.239 107.772 475.017 108.061 475.84C108.181 476.069 108.243 476.322 108.243 476.58C108.243 476.838 108.181 477.091 108.061 477.32C107.836 477.576 107.543 477.763 107.216 477.861C106.889 477.959 106.542 477.964 106.212 477.874C104.961 477.693 103.736 477.367 102.56 476.904C100.223 476.102 97.9506 475.12 95.7644 473.968C93.5147 472.782 91.3519 471.438 89.2923 469.946C88.0441 469.021 86.611 467.843 84.9467 466.363C85.4298 466.489 85.927 466.551 86.4261 466.548C86.881 466.549 87.3333 466.479 87.7667 466.34" fill="#FF6B00"/>
<path d="M145.091 485.156C143.843 484.901 142.456 484.578 140.977 484.185C139.498 483.792 137.903 483.353 136.192 482.844C138.203 481.711 140.607 480.533 143.404 479.053C146.201 477.574 149.506 476.187 153.297 474.708L145.091 485.156ZM159.353 474.615C159.703 474.08 159.99 473.506 160.208 472.905C160.275 472.6 160.275 472.285 160.208 471.98C160.189 471.7 160.118 471.426 160 471.171C159.901 470.934 159.751 470.721 159.561 470.547C159.413 470.376 159.221 470.248 159.006 470.177C158.104 470.099 157.195 470.225 156.348 470.547C155.008 470.94 153.181 471.587 150.893 472.512C148.605 473.436 145.877 474.661 142.71 476.164C139.544 477.666 135.915 479.469 131.893 481.596L127.801 480.255C128.202 480.231 128.603 480.231 129.003 480.255L130.136 480.371C130.513 480.405 130.892 480.405 131.269 480.371C131.662 480.347 132.048 480.245 132.401 480.07C130.876 479.631 129.512 479.261 128.31 479.03C127.177 478.8 126.017 478.737 124.866 478.845C124.234 478.928 123.613 479.083 123.017 479.308C122.39 479.535 121.78 479.805 121.191 480.117C120.688 480.402 120.209 480.727 119.758 481.087C119.438 481.32 119.183 481.63 119.018 481.989C118.948 482.149 118.912 482.322 118.912 482.497C118.912 482.672 118.948 482.846 119.018 483.006C119.242 483.376 119.561 483.679 119.942 483.884C120.515 484.232 121.119 484.526 121.745 484.763L124.404 485.803L119.157 488.808C118.297 488.756 117.434 488.818 116.591 488.993C115.717 489.18 114.859 489.435 114.025 489.755C113.228 490.057 112.455 490.42 111.714 490.842C111 491.228 110.313 491.66 109.656 492.136C109.118 492.522 108.615 492.955 108.154 493.431C107.835 493.742 107.576 494.111 107.391 494.517C107.358 494.643 107.353 494.775 107.377 494.903C107.401 495.03 107.453 495.151 107.53 495.257C107.707 495.534 107.978 495.739 108.293 495.835C109.188 496.059 110.125 496.059 111.02 495.835C112.328 495.562 113.606 495.159 114.834 494.633C116.519 493.96 118.164 493.188 119.758 492.321C121.607 491.35 123.641 490.195 125.883 488.877L128.68 487.213L130.598 487.837C132.355 488.422 134.089 488.954 135.799 489.432C137.487 489.94 139.174 490.356 140.861 490.703L136.238 496.551C135.962 496.891 135.73 497.264 135.545 497.661C135.36 498.077 135.198 498.47 135.06 498.84C134.883 499.226 134.798 499.649 134.814 500.073C134.829 500.498 134.943 500.914 135.148 501.286C135.352 501.659 135.641 501.979 135.991 502.22C136.34 502.462 136.742 502.618 137.163 502.677C138.102 502.982 139.091 503.1 140.075 503.023C141.221 502.906 142.351 502.673 143.45 502.33C144.825 501.878 146.176 501.353 147.495 500.758C148.975 500.088 150.593 499.325 152.396 498.447L152.881 496.713C150.107 497.661 147.865 498.331 146.224 498.724C145.145 499.082 144 499.192 142.872 499.048C142.755 499 142.652 498.925 142.571 498.828C142.491 498.732 142.435 498.616 142.41 498.493C142.311 498.177 142.311 497.838 142.41 497.522C142.674 496.803 143.04 496.126 143.496 495.511C144.074 494.679 144.814 493.639 145.808 492.391L147.241 492.714L148.443 492.968C148.781 493 149.122 493 149.46 492.968C149.761 492.972 150.059 492.917 150.338 492.807C151.039 492.559 151.726 492.274 152.396 491.951C153.043 491.628 153.621 491.304 154.106 491.004C154.524 490.728 154.926 490.427 155.308 490.102C155.554 489.927 155.746 489.687 155.863 489.409C155.895 489.332 155.912 489.249 155.912 489.166C155.912 489.083 155.895 489 155.863 488.923C155.753 488.712 155.604 488.523 155.424 488.369C155.185 488.17 154.93 487.992 154.661 487.837C154.345 487.659 154.012 487.512 153.667 487.398L153.274 487.282L150.269 486.496L157.62 476.788C158.216 476.049 158.772 475.277 159.284 474.477" fill="#FF6B00"/>
<path d="M195.828 496.713C196.522 495.557 197.377 494.401 198.348 492.945C199.319 491.489 200.451 490.125 201.676 488.553C202.901 486.982 203.757 485.826 204.658 484.693C205.56 483.561 206.299 482.567 206.97 481.688C207.495 480.953 207.966 480.18 208.38 479.377C208.675 478.876 208.857 478.315 208.911 477.736C208.922 477.199 208.868 476.664 208.749 476.141C208.642 475.72 208.479 475.316 208.264 474.939C208.103 474.63 207.873 474.361 207.594 474.153C207.39 473.97 207.128 473.864 206.854 473.852C206.191 473.922 205.571 474.216 205.097 474.685C204.358 475.262 203.433 476.095 202.277 477.204L198.14 481.272C196.522 482.867 194.603 484.67 192.384 486.704C187.268 491.327 183.269 494.841 180.388 497.245C178.778 498.895 176.773 500.104 174.563 500.758C174.331 500.758 174.216 500.596 174.216 500.296C174.289 499.552 174.526 498.834 174.909 498.192C175.466 497.182 176.099 496.216 176.805 495.303C177.637 494.193 178.654 492.991 179.833 491.558L183.878 486.935C184.895 485.764 185.843 484.701 186.721 483.746C187.56 482.872 188.333 481.937 189.032 480.949C189.653 480.049 190.165 479.079 190.558 478.059C190.968 476.949 191.179 475.776 191.182 474.592C191.317 473.576 191.07 472.547 190.489 471.703C190.134 471.364 189.712 471.105 189.25 470.941C188.787 470.778 188.296 470.715 187.807 470.755C187.4 470.725 186.99 470.725 186.582 470.755C186.004 470.755 185.288 470.871 184.456 470.986L181.543 471.449C180.457 471.657 179.232 471.911 177.96 472.211C176.24 472.621 174.542 473.122 172.875 473.714C171.402 474.25 169.979 474.916 168.622 475.702C167.524 476.328 166.52 477.106 165.64 478.013C164.743 479.029 163.967 480.146 163.329 481.342C162.496 482.619 161.879 484.024 161.503 485.502C161.505 485.694 161.55 485.882 161.634 486.054C161.718 486.226 161.839 486.377 161.988 486.496C162.368 486.817 162.855 486.983 163.352 486.959C164.563 486.945 165.758 486.685 166.865 486.196C168.183 485.641 169.662 484.971 171.35 484.162C173.037 483.353 174.886 482.451 176.967 481.503C179.219 480.483 181.535 479.611 183.901 478.891C182.809 480.602 181.547 482.197 180.133 483.653C178.608 485.271 176.92 487.051 175.117 489.016C173.73 490.495 172.505 491.882 171.419 493.153C170.333 494.425 169.431 495.65 168.668 496.759C167.959 497.77 167.362 498.855 166.889 499.995C166.496 500.943 166.269 501.952 166.218 502.977C166.204 503.728 166.337 504.474 166.611 505.173C166.867 505.825 167.235 506.427 167.698 506.953C168.118 507.436 168.618 507.842 169.177 508.155C169.677 508.422 170.229 508.579 170.795 508.617C172.413 508.617 175.418 506.883 179.555 503.301C183.693 499.718 189.379 494.401 196.522 487.467C193.989 490.62 191.672 493.941 189.587 497.406C188.18 499.582 187.316 502.063 187.068 504.641C186.947 505.971 187.344 507.296 188.177 508.34C188.574 508.777 189.06 509.125 189.602 509.36C190.144 509.595 190.73 509.712 191.321 509.703C192.311 509.699 193.295 509.535 194.233 509.218C195.475 508.82 196.675 508.301 197.816 507.669C200.69 506.059 203.269 503.972 205.444 501.498V499.186C203.504 500.809 201.423 502.256 199.226 503.509C198.059 504.241 196.737 504.692 195.366 504.826C194.141 504.826 193.563 504.11 193.586 502.746C193.632 501.814 193.843 500.899 194.21 500.041C194.656 498.889 195.198 497.776 195.828 496.713" fill="#FF6B00"/>
<path d="M239.746 469.576C239.134 470.724 238.455 471.836 237.712 472.905C236.752 474.29 235.702 475.61 234.569 476.857L234.037 475.84C232.723 476.988 231.473 478.207 230.292 479.492C229.386 480.461 228.545 481.488 227.773 482.567C227.23 483.282 226.772 484.057 226.409 484.878C226.175 485.342 226.079 485.864 226.132 486.381C226.239 486.794 226.445 487.174 226.733 487.49C227.048 487.833 227.406 488.136 227.796 488.392C228.18 488.642 228.601 488.829 229.044 488.946C229.43 489.048 229.837 489.048 230.223 488.946C230.771 488.748 231.285 488.468 231.749 488.114C232.61 487.509 233.429 486.845 234.199 486.126C235.303 485.12 236.352 484.056 237.342 482.937C238.6 481.544 239.773 480.077 240.856 478.545C245.34 472.373 247.12 467.473 246.195 463.798C246.074 463.211 245.825 462.657 245.465 462.178C245.106 461.698 244.645 461.304 244.115 461.024C242.834 460.477 241.4 460.403 240.07 460.816C237.055 461.724 234.234 463.182 231.749 465.115C228 467.917 224.553 471.101 221.462 474.615C219.375 476.869 217.473 479.289 215.776 481.85C214.355 483.967 213.133 486.211 212.124 488.553C211.321 490.462 210.769 492.467 210.483 494.517C210.243 496.18 210.314 497.873 210.691 499.51C210.998 500.854 211.607 502.111 212.471 503.185C213.296 504.216 214.337 505.052 215.522 505.635C216.804 506.229 218.182 506.589 219.59 506.699C221.207 506.799 222.83 506.643 224.398 506.236C228.559 505.023 232.386 502.872 235.586 499.949C240.035 495.979 243.923 491.422 247.143 486.404L246.265 484.37C243.057 488.388 239.422 492.046 235.424 495.28C232.718 497.562 229.57 499.262 226.178 500.273C224.659 500.765 223.011 500.675 221.555 500.018C220.96 499.665 220.446 499.191 220.048 498.625C219.649 498.059 219.375 497.415 219.243 496.736C218.954 495.455 218.891 494.133 219.059 492.83C219.238 491.175 219.635 489.551 220.237 487.999C220.947 486.071 221.821 484.207 222.849 482.428C224.081 480.319 225.463 478.303 226.987 476.395C228.489 474.5 229.899 472.835 231.263 471.425C232.627 470.015 233.875 468.813 234.985 467.843C235.894 467.007 236.859 466.235 237.874 465.531C238.417 465.148 239.008 464.837 239.631 464.607C240.417 464.422 240.879 464.607 241.064 465.369C241.122 465.893 241.059 466.423 240.879 466.918C240.61 467.791 240.254 468.636 239.816 469.438" fill="#FF6B00"/>
<path d="M270.697 457.557C270.697 457.718 270.951 457.695 271.182 457.557C271.413 457.418 271.668 456.84 272.546 455.476C273.424 454.112 274.858 452.078 276.545 449.328C276.845 448.865 277.077 448.472 277.261 448.126C277.438 447.803 277.556 447.45 277.608 447.086C277.642 446.733 277.595 446.377 277.47 446.045C277.306 445.585 277.081 445.15 276.799 444.751L276.406 444.15C276.104 443.676 275.764 443.228 275.389 442.809C275.098 442.508 274.699 442.334 274.28 442.324C273.281 442.39 272.306 442.657 271.413 443.11C269.703 443.882 268.063 444.802 266.513 445.86C263.582 447.768 260.89 450.018 258.492 452.564C256.404 454.754 254.658 457.248 253.315 459.961C251.003 464.884 250.61 468.721 252.413 471.518C253.071 472.53 254.039 473.302 255.172 473.719C256.306 474.135 257.543 474.174 258.7 473.829C262.717 472.75 266.506 470.957 269.888 468.536C267.39 470.812 265.121 473.328 263.115 476.048C261.517 478.192 260.182 480.521 259.14 482.983C258.319 484.842 257.879 486.846 257.845 488.877C257.818 490.511 258.268 492.117 259.14 493.5C259.757 494.457 260.598 495.25 261.59 495.811C262.598 496.333 263.714 496.61 264.849 496.621C266.199 496.601 267.536 496.351 268.801 495.881C270.425 495.287 271.975 494.511 273.424 493.569C274.92 492.59 276.334 491.492 277.654 490.287C278.978 489.076 280.228 487.787 281.399 486.427C282.503 485.114 283.522 483.732 284.45 482.289C285.273 480.984 285.977 479.607 286.554 478.175C287.171 476.712 287.486 475.14 287.478 473.552C287.366 471.983 286.831 470.473 285.93 469.183C285.565 468.654 285.164 468.152 284.728 467.681C283.687 469.854 282.647 471.888 281.607 473.76C280.606 475.559 279.487 477.288 278.255 478.938C277.087 480.501 275.796 481.97 274.395 483.33C272.975 484.713 271.427 485.959 269.772 487.051C268.539 487.951 267.164 488.639 265.704 489.085C264.641 489.362 263.924 489.201 263.531 488.623C263.374 488.299 263.295 487.943 263.3 487.583C263.313 486.999 263.382 486.419 263.508 485.849C263.671 485.062 263.895 484.289 264.179 483.538C264.525 482.587 264.934 481.66 265.404 480.764C266.415 478.828 267.632 477.007 269.033 475.332C270.726 473.284 272.556 471.354 274.511 469.553C275.042 469.045 275.528 468.605 275.99 468.236L277.192 467.172C277.52 466.9 277.815 466.589 278.071 466.248C278.314 465.957 278.495 465.618 278.602 465.254C278.754 464.763 278.862 464.261 278.926 463.751C278.958 463.297 278.958 462.842 278.926 462.388C278.966 462.027 278.966 461.662 278.926 461.301C278.881 461.061 278.803 460.827 278.695 460.608C278.58 460.446 278.42 460.322 278.235 460.252C278.049 460.182 277.847 460.169 277.654 460.215C276.996 460.352 276.364 460.594 275.782 460.931C274.996 461.347 274.049 461.879 272.916 462.596L268.894 465.023C267.276 466.017 265.866 466.849 264.641 467.542C263.629 468.127 262.587 468.66 261.52 469.137C260.863 469.45 260.161 469.66 259.44 469.761C259.182 469.777 258.925 469.709 258.709 469.567C258.492 469.426 258.327 469.218 258.238 468.975C258.119 468.702 258.058 468.407 258.058 468.108C258.058 467.81 258.119 467.515 258.238 467.242C258.585 466.272 259.018 465.336 259.532 464.445C260.155 463.352 260.85 462.302 261.613 461.301C262.394 460.252 263.235 459.249 264.132 458.296C265.036 457.335 265.993 456.424 266.999 455.569C268.001 454.738 269.051 453.966 270.142 453.257L271.067 452.656L272.315 451.893C271.661 453.107 271.156 454.395 270.812 455.731C270.604 456.724 270.581 457.372 270.812 457.649" fill="#FF6B00"/>
<path d="M29.402 294.921C29.4264 285.3 33.2608 276.08 40.0663 269.279C46.8717 262.478 56.094 258.649 65.7152 258.631H235.932C245.563 258.643 254.796 262.476 261.604 269.289C268.412 276.101 272.239 285.336 272.246 294.967V296.863C272.239 306.494 268.412 315.729 261.604 322.542C254.796 329.354 245.563 333.187 235.932 333.199H65.7152C56.078 333.181 46.8417 329.34 40.0337 322.518C33.2256 315.697 29.4019 306.454 29.402 296.817V294.921ZM65.7384 341.705H235.955C247.853 341.687 259.258 336.951 267.668 328.536C276.079 320.121 280.809 308.714 280.821 296.817V294.921C280.809 283.024 276.079 271.617 267.668 263.202C259.258 254.787 247.853 250.051 235.955 250.032H65.7152C53.8177 250.051 42.4131 254.787 34.0025 263.202C25.5918 271.617 20.8617 283.024 20.8495 294.921V296.817C20.8617 308.714 25.5918 320.121 34.0025 328.536C42.4131 336.951 53.8177 341.687 65.7152 341.705" fill="#FF6B00"/>
<path d="M297.002 32.1064C298.136 32.1064 299.223 31.6559 300.025 30.8539C300.827 30.052 301.278 28.9643 301.278 27.8302C301.278 26.696 300.827 25.6084 300.025 24.8064C299.223 24.0045 298.136 23.5539 297.002 23.5539C289.664 23.5766 282.416 25.1778 275.752 28.2488C269.087 31.3198 263.162 35.7888 258.377 41.3523C259.533 45.1523 260.132 49.0996 260.157 53.0715C268.593 40.0347 282.254 32.0139 297.002 32.2682" fill="#FF6B00"/>
<path d="M77.6425 28.4543C96.4348 28.7779 113.1 42.6929 119.041 62.6179C119.537 58.4747 121.133 54.54 123.664 51.2223C114.765 32.7305 97.2207 20.2254 77.6656 19.9018C76.5315 19.9018 75.4438 20.3523 74.6418 21.1543C73.8399 21.9562 73.3893 23.0439 73.3893 24.178C73.3893 25.3121 73.8399 26.3998 74.6418 27.2018C75.4438 28.0037 76.5315 28.4543 77.6656 28.4543" fill="#FF6B00"/>
<path d="M71.5171 125.143C70.9939 129.175 70.716 133.236 70.6849 137.302C70.6849 165.386 82.8664 191.806 105.149 211.662C128.06 231.726 157.539 242.682 187.992 242.451H188.27C218.62 242.725 248.025 231.899 270.951 212.009C293.326 192.245 305.623 165.779 305.623 137.764C305.618 133.55 305.332 129.342 304.768 125.166C304.79 125.029 304.79 124.888 304.768 124.75C301.935 125.148 299.148 125.822 296.447 126.761C296.931 130.409 297.17 134.084 297.163 137.764C297.163 163.375 285.791 187.484 265.288 205.606C243.93 224.114 216.53 234.154 188.27 233.829H188.015C159.661 234.085 132.198 223.928 110.835 205.282C90.4018 186.975 79.1912 162.936 79.2374 137.302C79.2527 133.723 79.4921 130.148 79.9539 126.6C77.2511 125.679 74.4637 125.029 71.6326 124.658C71.5832 124.817 71.5446 124.979 71.5171 125.143" fill="#FF6B00"/>
<path d="M148.998 124.219C148.979 124.78 149.072 125.34 149.27 125.866C149.468 126.392 149.767 126.874 150.151 127.284C150.536 127.694 150.997 128.024 151.509 128.256C152.021 128.487 152.574 128.616 153.135 128.634H153.274C154.371 128.629 155.425 128.206 156.22 127.449C157.015 126.693 157.491 125.661 157.55 124.565C157.851 114.834 151.61 106.698 143.681 106.443C135.753 106.189 128.795 113.817 128.495 123.548C128.476 124.11 128.569 124.67 128.767 125.196C128.965 125.722 129.264 126.203 129.649 126.613C130.033 127.023 130.494 127.354 131.006 127.585C131.518 127.817 132.071 127.945 132.632 127.963H132.771C133.88 127.958 134.944 127.525 135.741 126.754C136.537 125.983 137.006 124.934 137.047 123.826C137.209 118.902 140.006 114.811 143.311 114.903C146.617 114.996 149.16 119.272 148.998 124.149" fill="#FF6B00"/>
<path d="M239.007 124.219C238.988 124.78 239.08 125.34 239.278 125.866C239.476 126.392 239.776 126.874 240.16 127.284C240.545 127.694 241.006 128.024 241.518 128.256C242.03 128.487 242.582 128.616 243.144 128.634H243.283C244.38 128.629 245.434 128.206 246.229 127.449C247.024 126.693 247.5 125.661 247.559 124.565C247.86 114.834 241.619 106.698 233.69 106.443H233.297C225.461 106.443 218.92 114.048 218.596 123.618C218.578 124.179 218.67 124.739 218.868 125.265C219.066 125.791 219.366 126.273 219.75 126.683C220.134 127.093 220.596 127.423 221.108 127.655C221.619 127.886 222.172 128.015 222.734 128.033C223.296 128.057 223.857 127.969 224.384 127.773C224.912 127.577 225.394 127.278 225.804 126.892C226.213 126.506 226.541 126.042 226.768 125.527C226.995 125.013 227.117 124.458 227.126 123.895C227.287 119.018 230.107 114.973 233.297 114.973C236.533 114.973 239.145 119.341 238.983 124.219" fill="#FF6B00"/>
<path d="M162.959 202.693C169.063 209.187 177.493 212.997 186.401 213.287C195.309 213.577 203.969 210.325 210.483 204.242C210.893 203.858 211.223 203.397 211.455 202.885C211.686 202.374 211.815 201.822 211.833 201.26C211.851 200.699 211.759 200.14 211.561 199.614C211.363 199.089 211.063 198.607 210.679 198.197C210.295 197.788 209.835 197.458 209.323 197.226C208.811 196.994 208.259 196.866 207.698 196.847C207.137 196.829 206.577 196.922 206.052 197.12C205.526 197.317 205.045 197.617 204.635 198.001C199.781 202.544 193.323 204.975 186.678 204.758C180.034 204.541 173.747 201.695 169.2 196.845C168.425 196.018 167.352 195.532 166.218 195.495C165.085 195.458 163.983 195.873 163.156 196.649C162.328 197.424 161.842 198.497 161.805 199.63C161.769 200.764 162.184 201.866 162.959 202.693Z" fill="#FF6B00"/>
<path d="M327.028 442.255C326.467 442.255 325.912 442.365 325.395 442.581C324.877 442.796 324.407 443.111 324.012 443.508C323.617 443.906 323.304 444.377 323.092 444.896C322.879 445.415 322.771 445.97 322.774 446.531C322.774 489.547 261.775 524.543 186.813 524.543C111.852 524.543 50.8756 489.547 50.8756 446.531C50.8756 445.397 50.425 444.309 49.6231 443.507C48.8211 442.705 47.7335 442.255 46.5994 442.255C45.4652 442.255 44.3775 442.705 43.5756 443.507C42.7737 444.309 42.3231 445.397 42.3231 446.531C42.3231 494.263 107.044 533.096 186.813 533.096C266.582 533.096 331.304 494.263 331.304 446.531C331.304 445.397 330.853 444.309 330.051 443.507C329.249 442.705 328.162 442.255 327.028 442.255Z" fill="#FF6B00"/>
<path d="M55.1749 61.231C70.7311 53.6262 90.7254 61.231 98.8849 77.7811C99.2482 78.4835 99.7992 79.0714 100.477 79.4795C101.154 79.8876 101.931 80.0998 102.722 80.0926C103.379 80.0906 104.027 79.9404 104.617 79.6534C105.631 79.1468 106.404 78.2603 106.768 77.1867C107.131 76.1132 107.056 74.9395 106.559 73.921C96.3423 53.1177 71.101 43.8718 51.4303 53.4875C50.8939 53.7129 50.4092 54.0453 50.0058 54.4645C49.6023 54.8837 49.2886 55.3808 49.0839 55.9254C48.8792 56.47 48.7878 57.0506 48.8153 57.6317C48.8427 58.2129 48.9885 58.7823 49.2436 59.3052C49.4987 59.828 49.8579 60.2933 50.2991 60.6726C50.7402 61.0519 51.2542 61.3371 51.8094 61.5109C52.3646 61.6847 52.9495 61.7434 53.5282 61.6833C54.1069 61.6232 54.6672 61.4457 55.1749 61.1616" fill="#FF6B00"/>
<path d="M44.4035 93.3143C47.1605 91.1727 50.3471 89.651 53.7457 88.8532C57.1444 88.0554 60.6752 88.0002 64.0972 88.6913C68.1661 89.2581 72.0663 90.6902 75.5352 92.8911C79.0041 95.0921 81.9611 98.0108 84.2071 101.451C84.5953 102.068 85.1342 102.577 85.7731 102.928C86.412 103.28 87.1299 103.464 87.8592 103.462C88.6726 103.472 89.4729 103.256 90.1707 102.838C90.6493 102.542 91.065 102.155 91.3938 101.699C91.7227 101.242 91.9582 100.726 92.0871 100.178C92.2159 99.6306 92.2354 99.0631 92.1446 98.508C92.0537 97.9529 91.8542 97.4212 91.5576 96.9433C88.6778 92.4386 84.8556 88.6118 80.3544 85.7267C75.8531 82.8416 70.7798 80.9667 65.4841 80.2313C60.8337 79.3618 56.0502 79.5087 51.4619 80.6617C46.8736 81.8148 42.589 83.9468 38.9021 86.9115C38.4411 87.2658 38.0572 87.7105 37.7739 88.2183C37.4906 88.7261 37.3138 89.2863 37.2543 89.8648C37.1949 90.4432 37.2541 91.0277 37.4282 91.5825C37.6023 92.1373 37.8878 92.6508 38.2671 93.0915C38.6465 93.5322 39.1117 93.8909 39.6344 94.1457C40.1571 94.4005 40.7262 94.546 41.3071 94.5734C41.8879 94.6007 42.4682 94.5093 43.0126 94.3047C43.5569 94.1002 44.0537 93.7867 44.4728 93.3836" fill="#FF6B00"/>
<path d="M277.678 214.158C276.598 214.508 275.701 215.271 275.181 216.28C274.661 217.288 274.562 218.462 274.904 219.544L316.025 347.738C316.299 348.602 316.841 349.357 317.573 349.893C318.304 350.429 319.186 350.719 320.093 350.72C320.533 350.721 320.97 350.651 321.388 350.512C321.923 350.344 322.42 350.072 322.85 349.71C323.279 349.349 323.633 348.907 323.891 348.408C324.149 347.91 324.306 347.365 324.352 346.806C324.398 346.247 324.334 345.684 324.161 345.15L283.04 217.024C282.695 215.947 281.937 215.049 280.932 214.53C279.927 214.01 278.757 213.909 277.678 214.251" fill="#FF6B00"/>
<path d="M35.4812 141.855C36.0355 142.126 36.6439 142.269 37.261 142.271C38.0768 142.272 38.8758 142.04 39.5639 141.602C40.252 141.164 40.8003 140.538 41.1443 139.798C46.4144 128.449 58.0874 122.924 71.6326 124.658C74.4637 125.029 77.2511 125.679 79.9539 126.6L80.9248 126.9C81.9945 127.28 83.1715 127.22 84.1966 126.732C85.2218 126.244 86.0113 125.369 86.3914 124.3C86.7715 123.23 86.711 122.053 86.2234 121.028C85.7357 120.003 84.8608 119.213 83.791 118.833C62.4098 111.251 41.6759 118.371 33.4008 136.192C33.1638 136.7 33.0296 137.25 33.006 137.811C32.9824 138.371 33.0697 138.93 33.2631 139.456C33.4564 139.983 33.7519 140.466 34.1326 140.877C34.5132 141.289 34.9716 141.621 35.4812 141.855" fill="#FF6B00"/>
<path d="M270.396 73.9903C270.147 74.4941 269.999 75.0422 269.962 75.6031C269.925 76.164 269.998 76.7267 270.179 77.2592C270.359 77.7916 270.643 78.2832 271.013 78.706C271.384 79.1287 271.834 79.4742 272.338 79.7228C272.92 80.0126 273.561 80.163 274.21 80.162C275.002 80.1718 275.78 79.9607 276.458 79.5523C277.136 79.144 277.686 78.5546 278.047 77.8505C286.23 61.2541 306.224 53.6956 321.757 61.3003C322.77 61.7629 323.923 61.8122 324.972 61.4378C326.021 61.0633 326.882 60.2946 327.372 59.2952C327.863 58.2957 327.945 57.1443 327.6 56.0856C327.255 55.027 326.51 54.1447 325.525 53.6262C305.854 43.9874 280.59 53.3489 270.396 74.0597" fill="#FF6B00"/>
<path d="M311.541 80.162C306.245 80.8889 301.169 82.7552 296.664 85.6323C292.159 88.5094 288.331 92.3289 285.444 96.8277C284.853 97.7973 284.67 98.9612 284.934 100.066C285.198 101.17 285.888 102.125 286.854 102.722C287.547 103.152 288.351 103.369 289.166 103.346C289.891 103.346 290.605 103.162 291.24 102.81C291.875 102.458 292.41 101.951 292.795 101.335C295.046 97.8981 298.004 94.9803 301.472 92.7762C304.939 90.5721 308.837 89.1322 312.904 88.5526C316.326 87.8599 319.858 87.9144 323.256 88.7123C326.655 89.5101 329.842 91.0326 332.598 93.1756C333.017 93.5787 333.514 93.8922 334.058 94.0967C334.603 94.3013 335.183 94.3927 335.764 94.3653C336.345 94.338 336.914 94.1925 337.437 93.9377C337.959 93.6829 338.425 93.3242 338.804 92.8834C339.183 92.4427 339.469 91.9293 339.643 91.3745C339.817 90.8197 339.876 90.2352 339.817 89.6568C339.757 89.0783 339.58 88.5181 339.297 88.0103C339.014 87.5025 338.63 87.0578 338.169 86.7035C334.487 83.738 330.207 81.6053 325.622 80.4521C321.037 79.2989 316.257 79.1526 311.61 80.0233" fill="#FF6B00"/>
<path d="M335.788 139.798C336.137 140.534 336.686 141.157 337.373 141.595C338.06 142.032 338.857 142.267 339.671 142.271C340.296 142.269 340.912 142.127 341.474 141.855C341.984 141.621 342.442 141.289 342.823 140.877C343.204 140.466 343.499 139.983 343.692 139.456C343.886 138.93 343.973 138.371 343.949 137.811C343.926 137.25 343.792 136.7 343.555 136.192C335.28 118.371 314.546 111.251 293.164 118.833C292.599 118.989 292.072 119.261 291.616 119.629C291.159 119.998 290.784 120.457 290.513 120.978C290.242 121.498 290.08 122.068 290.039 122.654C289.998 123.239 290.077 123.826 290.273 124.379C290.468 124.933 290.776 125.44 291.175 125.869C291.575 126.298 292.059 126.641 292.597 126.875C293.135 127.109 293.715 127.23 294.302 127.231C294.889 127.231 295.469 127.111 296.008 126.877L296.447 126.738C299.148 125.798 301.935 125.125 304.768 124.727C318.637 122.762 330.449 128.264 335.788 139.775" fill="#FF6B00"/>
<path d="M253.916 414.817C254.803 410.024 255.191 405.152 255.071 400.278V371.084C255.142 368.405 255.018 365.725 254.701 363.063C254.306 361.167 253.49 359.383 252.314 357.843C251.138 356.303 249.631 355.046 247.906 354.164C245.88 353.091 243.625 352.52 241.332 352.5C239.039 352.48 236.775 353.011 234.73 354.049C232.742 354.993 231.03 356.434 229.761 358.232C228.754 359.615 228.038 361.188 227.657 362.855C227.259 365.556 227.097 368.286 227.172 371.015V401.942C227.29 404.01 227.142 406.084 226.733 408.114C226.412 409.122 225.766 409.996 224.896 410.598C224.026 411.201 222.981 411.498 221.925 411.443C221.211 411.466 220.501 411.331 219.845 411.048C219.19 410.764 218.605 410.338 218.134 409.801C217.074 408.504 216.553 406.849 216.678 405.179V400.556C216.886 396.501 215.481 392.529 212.771 389.507C211.449 388.126 209.848 387.043 208.074 386.329C206.301 385.616 204.395 385.288 202.485 385.369C200.626 385.318 198.778 385.683 197.078 386.439C195.378 387.195 193.869 388.322 192.661 389.738C191.184 391.426 190.123 393.437 189.564 395.609C188.875 398.641 188.564 401.747 188.64 404.855C188.623 407.963 188.949 411.064 189.61 414.101C190.202 416.872 191.174 419.548 192.5 422.052C193.81 424.501 195.443 426.763 197.354 428.779C200.467 432.16 204.265 434.839 208.495 436.638C215.646 439.755 223.664 440.261 231.151 438.068C238.637 435.876 245.115 431.123 249.454 424.641C251.534 421.653 253.025 418.295 253.846 414.748" fill="#FF6B00"/>
<path d="M316.649 404.254C315.225 406.714 313.186 408.761 310.732 410.194C308.258 411.636 305.447 412.396 302.584 412.396C299.721 412.396 296.909 411.636 294.436 410.194C291.937 408.763 289.866 406.691 288.436 404.192C287.006 401.693 286.268 398.858 286.299 395.979C286.299 393.112 287.1 390.302 288.611 387.866C290.052 385.449 292.09 383.444 294.528 382.041C296.997 380.604 299.808 379.862 302.665 379.891C306.956 379.891 311.071 381.596 314.106 384.63C317.14 387.665 318.845 391.78 318.845 396.071C318.875 398.938 318.124 401.759 316.672 404.231L316.649 404.254ZM342.815 379.105C340.636 373.867 337.438 369.113 333.407 365.121C326.549 358.397 317.691 354.084 308.169 352.833C298.646 351.582 288.975 353.461 280.613 358.186C274.035 361.912 268.551 367.3 264.71 373.812C260.838 380.36 258.824 387.84 258.885 395.447C258.852 401.21 259.959 406.923 262.144 412.256C264.329 417.589 267.549 422.437 271.616 426.52C275.684 430.602 280.52 433.839 285.845 436.044C291.17 438.249 296.878 439.378 302.641 439.365C308.403 439.401 314.111 438.268 319.423 436.037C329.959 431.509 338.357 423.112 342.884 412.575C345.104 407.259 346.247 401.555 346.247 395.794C346.247 390.033 345.104 384.329 342.884 379.013" fill="#FF6B00"/>
<path d="M60.5838 439.458C66.0654 439.481 71.4675 438.147 76.3077 435.573C81.1478 433 85.2753 429.268 88.3215 424.711C90.4081 421.723 91.9065 418.366 92.7364 414.817C93.6243 410.024 94.0116 405.152 93.8921 400.278V371.084C93.9508 368.405 93.8273 365.726 93.5223 363.063C93.2077 361.465 92.5706 359.947 91.65 358.602C90.4469 356.699 88.7437 355.164 86.7266 354.164C84.7004 353.091 82.4459 352.52 80.153 352.5C77.86 352.48 75.5958 353.011 73.5512 354.049C71.5625 354.993 69.8509 356.434 68.5815 358.232C67.5749 359.615 66.8593 361.188 66.478 362.855C66.0799 365.556 65.9175 368.286 65.9926 371.015V401.942C66.098 404.01 65.9505 406.082 65.5535 408.114C65.2329 409.122 64.5871 409.996 63.7172 410.598C62.8472 411.201 61.8022 411.497 60.7456 411.443C60.0283 411.467 59.3145 411.332 58.6553 411.048C57.996 410.764 57.4075 410.339 56.9317 409.801C55.8908 408.495 55.3793 406.845 55.4985 405.179V400.556C55.7027 396.506 54.3082 392.538 51.6153 389.507C50.2915 388.122 48.6866 387.036 46.9085 386.322C45.1304 385.608 43.2201 385.284 41.3061 385.369C39.4499 385.32 37.6063 385.686 35.9103 386.442C34.2144 387.198 32.7093 388.324 31.5054 389.738C30.019 391.42 28.9569 393.433 28.408 395.609C27.7069 398.639 27.3962 401.746 27.4835 404.855C27.4641 407.963 27.7897 411.064 28.4543 414.101C29.0423 416.88 30.0147 419.564 31.3436 422.075C32.6539 424.524 34.2865 426.787 36.1977 428.802C39.3112 432.183 43.1093 434.862 47.339 436.661C51.531 438.489 56.057 439.425 60.63 439.411" fill="#FF6B00"/>
<path d="M155.354 404.254C153.932 406.721 151.893 408.776 149.437 410.218C147.001 411.71 144.204 412.509 141.347 412.529C138.46 412.512 135.633 411.713 133.164 410.218C130.692 408.781 128.637 406.726 127.2 404.254C125.751 401.747 125.001 398.898 125.028 396.002C125.028 393.135 125.828 390.325 127.339 387.889C128.771 385.465 130.811 383.458 133.257 382.064C135.718 380.63 138.521 379.888 141.37 379.914C145.661 379.914 149.777 381.619 152.811 384.653C155.845 387.688 157.55 391.803 157.55 396.094C157.537 398.974 156.738 401.795 155.239 404.254H155.354ZM181.474 412.691C183.704 407.403 184.836 401.717 184.802 395.979C184.8 390.25 183.668 384.577 181.47 379.286C179.273 373.995 176.054 369.189 171.997 365.144C163.772 357.026 152.672 352.489 141.116 352.523C133.51 352.493 126.028 354.448 119.408 358.194C112.789 361.939 107.26 367.346 103.369 373.881C99.4966 380.429 97.4828 387.909 97.5443 395.517C97.5107 401.28 98.6184 406.993 100.803 412.326C102.989 417.658 106.208 422.506 110.275 426.589C114.343 430.672 119.179 433.909 124.504 436.113C129.829 438.318 135.537 439.447 141.301 439.435C147.062 439.47 152.77 438.338 158.082 436.106C168.618 431.579 177.016 423.181 181.543 412.645" fill="#FF6B00"/>
<path d="M200.128 42.8317C200.178 44.7831 200.031 46.7348 199.688 48.6566C199.344 50.0798 198.741 51.4276 197.909 52.6323C196.693 54.4592 195.041 55.9531 193.101 56.9779C191.171 58.0236 189.008 58.5643 186.813 58.5497C184.984 58.5705 183.168 58.2247 181.474 57.5326C179.775 56.8 178.248 55.7215 176.99 54.3659C176.224 53.5254 175.564 52.5938 175.025 51.5922C174.499 50.5851 174.111 49.5123 173.869 48.4023C173.604 47.1796 173.473 45.9319 173.476 44.6808C173.441 43.4373 173.566 42.1945 173.846 40.9825C174.079 40.1264 174.506 39.3355 175.094 38.671C175.578 38.1049 176.181 37.6536 176.861 37.3497C177.541 37.0459 178.279 36.8971 179.024 36.9143C179.792 36.8801 180.559 37.011 181.273 37.298C181.987 37.5851 182.631 38.0217 183.161 38.5785C184.245 39.7959 184.809 41.3888 184.733 43.0166V44.8658C184.69 45.5254 184.896 46.1772 185.311 46.6918C185.501 46.9085 185.736 47.0809 185.999 47.1967C186.263 47.3126 186.549 47.369 186.837 47.3622C187.259 47.3778 187.674 47.2553 188.021 47.0134C188.367 46.7715 188.625 46.4232 188.755 46.0215C188.908 45.191 188.955 44.3443 188.894 43.502V31.1125C188.861 30.0143 188.931 28.9155 189.102 27.8302C189.236 27.1517 189.52 26.5119 189.934 25.9579C190.439 25.2322 191.124 24.6506 191.922 24.2705C192.739 23.8451 193.647 23.623 194.568 23.623C195.49 23.623 196.398 23.8451 197.215 24.2705C198.028 24.6715 198.715 25.2869 199.203 26.0503C199.572 26.5851 199.824 27.1915 199.943 27.8302C200.06 28.9047 200.106 29.9857 200.081 31.0662L200.128 42.8317ZM258.377 41.3061C253.754 25.8192 240.047 12.3664 220.191 4.831C215.377 2.93842 210.37 1.58188 205.259 0.785914C198.86 -0.0370377 192.396 -0.238305 185.958 0.184931C178.314 0.538598 170.78 2.1392 163.652 4.92346C157.11 7.17678 151.157 10.87 146.232 15.7307C141.308 20.5914 137.537 26.4956 135.198 33.0079C133.858 36.8449 132.263 40.3584 130.39 44.4497L130.113 45.0507C127.74 46.8208 125.61 48.8959 123.78 51.2223C122.311 53.1419 121.135 55.2684 120.289 57.5326C119.702 59.1891 119.284 60.9006 119.041 62.641C118.58 65.7049 118.801 68.8327 119.688 71.8014C120.575 74.7701 122.106 77.5064 124.172 79.8153C133.904 90.6099 149.067 86.7497 155.562 85.0392C163.717 82.9043 172.064 81.5879 180.48 81.1097C185.267 80.7148 190.086 81.0658 194.765 82.1499C194.973 82.1499 216.146 89.6622 228.397 89.6622H228.836C243.791 89.431 251.072 77.55 254.262 72.4879C254.632 71.8638 254.979 71.2628 255.349 70.7312C257.919 67.0705 259.51 62.8136 259.972 58.3648C260.168 56.5918 260.26 54.809 260.249 53.0253C260.226 49.0533 259.627 45.1057 258.469 41.3061" fill="#FF6B00"/>
<path d="M18.5611 213.881C18.0398 213.513 17.4621 213.232 16.8507 213.049C16.0448 212.799 15.2164 212.628 14.3774 212.54C13.3076 212.468 12.2342 212.468 11.1644 212.54C10.0087 212.54 8.99164 212.54 8.15951 212.725L6.03295 212.864C5.59547 212.918 5.15289 212.918 4.7154 212.864C4.58442 212.834 4.46301 212.771 4.36212 212.683C4.26122 212.594 4.18404 212.481 4.13754 212.355C4.1075 212.229 4.10433 212.098 4.12822 211.971C4.15211 211.843 4.20254 211.722 4.27623 211.616C4.46596 211.218 4.7154 210.852 5.0159 210.529C5.42976 210.072 5.87795 209.647 6.35655 209.258C6.95439 208.758 7.58787 208.302 8.25196 207.894C8.99164 207.432 9.80065 206.993 10.679 206.553C11.634 206.111 12.6142 205.725 13.6146 205.398L14.308 205.167L14.8628 205.005C14.2387 205.768 13.7764 206.392 13.4297 206.831C13.0829 207.27 12.9905 207.64 13.0598 207.871C13.1292 208.102 13.3372 208.195 13.6146 208.102C13.8059 208.023 13.9675 207.885 14.0769 207.709C14.2996 207.412 14.547 207.133 14.8166 206.877C15.4869 206.23 16.0879 205.698 16.5964 205.282C17.0156 204.966 17.4097 204.619 17.7752 204.242C18.2516 203.796 18.5614 203.201 18.6536 202.555C18.7444 201.87 18.6731 201.173 18.4456 200.521C18.3997 200.412 18.3268 200.316 18.2338 200.243C18.1408 200.171 18.0307 200.123 17.9139 200.104C17.5304 199.999 17.1317 199.96 16.7351 199.989C16.1352 200.018 15.5393 200.103 14.9552 200.243C14.1731 200.405 13.4013 200.614 12.6438 200.867C11.3072 201.309 10.0085 201.857 8.76049 202.508C7.59926 203.094 6.47944 203.758 5.40885 204.496C4.49447 205.115 3.62897 205.802 2.82 206.553C2.21792 207.097 1.68253 207.71 1.22508 208.38C0.792194 209.166 0.561828 210.048 0.554751 210.945C0.517225 211.992 0.682041 213.036 1.04016 214.02C1.15545 214.443 1.41764 214.812 1.77983 215.06C2.20237 215.34 2.68591 215.514 3.18983 215.568C3.89675 215.642 4.60947 215.642 5.31639 215.568C6.17934 215.568 7.17327 215.476 8.29819 215.291L11.488 214.967C12.258 214.926 13.0296 214.926 13.7995 214.967C14.3143 214.954 14.8284 215.016 15.3251 215.152C15.4754 215.187 15.615 215.257 15.7318 215.358C15.8487 215.459 15.9391 215.586 15.9954 215.73C16.0441 215.927 16.0352 216.135 15.9696 216.327C15.9041 216.52 15.7847 216.69 15.6256 216.816C15.105 217.36 14.5233 217.84 13.892 218.25C12.703 219.124 11.4427 219.897 10.1243 220.561C8.77571 221.251 7.37718 221.838 5.94049 222.318C5.06213 222.595 3.97573 222.896 2.70442 223.196C2.92306 222.998 3.12414 222.782 3.30541 222.549C3.45337 222.319 3.56997 222.07 3.65213 221.809C2.91564 222.098 2.2108 222.462 1.54868 222.896C1.15948 223.129 0.83391 223.454 0.600979 223.843C0.453842 224.123 0.337583 224.417 0.254258 224.722C0.254258 225.068 0.0924542 225.392 0.02311 225.716C-0.0462343 226.039 0.0231095 226.317 -0.0924642 226.571C-0.118328 226.724 -0.118328 226.88 -0.0924642 227.033C-0.0352882 227.175 0.0523363 227.302 0.164189 227.406C0.276042 227.51 0.409383 227.588 0.554751 227.634C0.987359 227.813 1.45035 227.907 1.91852 227.911C2.61569 227.93 3.31287 227.875 3.99885 227.75C4.90525 227.605 5.79549 227.373 6.65704 227.056C7.86754 226.658 9.0558 226.195 10.2167 225.669C11.3262 225.161 12.3664 224.629 13.3141 224.098C14.1922 223.591 15.0411 223.035 15.8567 222.433C16.5104 221.973 17.1147 221.446 17.6597 220.861C18.0684 220.434 18.4042 219.942 18.6536 219.405C18.897 218.885 19.0905 218.344 19.2315 217.787C19.3543 217.295 19.424 216.792 19.4395 216.285C19.4673 215.903 19.4281 215.52 19.3239 215.152C19.1506 214.708 18.8538 214.323 18.4687 214.043" fill="#FF6B00"/>
<path d="M22.167 216.77L22.4213 217.487C22.56 217.926 22.7218 218.319 22.8605 218.666C22.9753 218.963 23.1309 219.243 23.3228 219.498C23.4564 219.681 23.6304 219.831 23.8313 219.937C24.0396 220.017 24.2702 220.017 24.4785 219.937C24.865 219.764 25.1708 219.449 25.3338 219.059C25.6111 218.55 25.9347 217.903 26.3046 217.094C26.6744 216.285 27.1136 215.337 27.6452 214.228C28.2709 212.98 28.9654 211.769 29.7256 210.599C29.217 212.193 28.8472 213.534 28.6161 214.597C28.4067 215.424 28.4067 216.29 28.6161 217.117C28.7506 217.643 29.0814 218.098 29.5406 218.388C29.7534 218.491 29.9864 218.544 30.2225 218.544C30.4586 218.544 30.6917 218.491 30.9044 218.388C31.9977 217.895 32.922 217.091 33.5626 216.077C34.5256 214.674 35.3906 213.207 36.1515 211.685C36.0803 211.551 36.0185 211.412 35.9666 211.269C35.8598 210.805 35.8598 210.323 35.9666 209.859C34.3254 212.633 33.0772 214.158 32.1988 214.482C32.0205 214.551 31.8225 214.551 31.6441 214.482C31.5577 214.454 31.4792 214.405 31.4149 214.341C31.3507 214.277 31.3025 214.198 31.2743 214.112C31.1667 213.521 31.2309 212.911 31.4592 212.355C31.7878 211.31 32.1736 210.284 32.6149 209.281L33.1003 208.01C33.1631 207.775 33.1631 207.528 33.1003 207.293C33.0309 207.128 32.9193 206.985 32.7767 206.877C32.5979 206.74 32.404 206.624 32.1988 206.53C31.9872 206.423 31.7616 206.345 31.5285 206.299C31.3465 206.253 31.1558 206.253 30.9738 206.299C30.6143 206.494 30.2931 206.752 30.0261 207.062C29.4901 207.635 28.9957 208.245 28.5467 208.888C27.992 209.674 27.3447 210.645 26.6744 211.8C26.0041 212.956 25.2182 214.274 24.3629 215.799L24.0856 214.228C25.4725 211.361 26.6513 208.796 27.599 206.553C28.5467 204.311 29.3326 202.416 29.9105 200.844C30.3655 199.624 30.759 198.382 31.0893 197.123C31.2677 196.594 31.3538 196.039 31.3436 195.481C31.3002 195.39 31.2268 195.317 31.1356 195.273C31.0174 195.192 30.8835 195.137 30.7426 195.112C30.5749 195.077 30.4018 195.077 30.2341 195.112C30.0586 195.077 29.8779 195.077 29.7025 195.112C29.3857 195.312 29.1174 195.581 28.9166 195.898C28.4156 196.568 27.96 197.27 27.5528 198.001C27.0211 198.926 26.4433 200.035 25.7961 201.376C25.1488 202.716 24.5247 204.265 23.8775 205.999C23.2303 207.732 22.6062 209.535 22.2364 210.83C21.9405 211.824 21.7469 212.847 21.6585 213.881C21.5864 214.379 21.5864 214.885 21.6585 215.383C21.7741 215.822 21.8897 216.262 22.0284 216.724" fill="#FF6B00"/>
<path d="M38.8328 209.466C39.1069 208.754 39.5061 208.096 40.0116 207.524C40.7178 206.692 41.4908 205.919 42.3231 205.213C43.2477 204.404 44.311 203.502 45.5361 202.485C45.0064 203.812 44.4045 205.108 43.7331 206.369C43.2209 207.36 42.6576 208.324 42.0457 209.258C41.6392 209.907 41.175 210.518 40.6589 211.084C40.4122 211.39 40.1054 211.641 39.7574 211.824C39.6858 211.86 39.6066 211.879 39.5262 211.879C39.4459 211.879 39.3667 211.86 39.2951 211.824C39.1172 211.691 38.9873 211.505 38.9253 211.292C38.7171 210.709 38.7171 210.072 38.9253 209.489L38.8328 209.466ZM36.0359 211.384C36.0878 211.527 36.1496 211.666 36.2208 211.8C36.3875 212.149 36.5972 212.475 36.8449 212.771C37.2127 213.191 37.6233 213.57 38.07 213.904C38.4527 214.191 38.8631 214.438 39.2951 214.644C39.5661 214.781 39.8712 214.838 40.1734 214.805C40.9263 214.391 41.5562 213.785 41.9995 213.049C42.9455 211.651 43.8099 210.2 44.5884 208.703C44.5884 209.443 44.5884 210.09 44.5884 210.622C44.5815 211.075 44.6438 211.527 44.7733 211.962C44.8673 212.212 44.9999 212.446 45.1662 212.656C45.3352 212.835 45.5399 212.977 45.7672 213.072C45.9839 213.179 46.2196 213.242 46.4607 213.257C46.7059 213.292 46.955 213.292 47.2003 213.257C47.6581 213.084 48.0696 212.807 48.4023 212.448C48.8648 211.977 49.2755 211.457 49.6274 210.899C50.0666 210.252 50.5057 209.489 50.9912 208.588L52.1238 206.415C51.9793 205.871 51.8941 205.313 51.8695 204.75C51.8695 204.75 51.8695 204.75 51.8695 204.612C51.2833 205.587 50.6428 206.528 49.951 207.432C49.533 208.061 48.9377 208.552 48.2405 208.842C47.9903 208.906 47.7279 208.906 47.4777 208.842C47.3747 208.802 47.2817 208.74 47.2057 208.66C47.1298 208.58 47.0726 208.484 47.0385 208.38C46.9097 207.911 46.9097 207.415 47.0385 206.946C47.1466 206.405 47.2934 205.872 47.4777 205.351C47.6626 204.82 47.8244 204.334 47.9862 203.895C48.0781 203.57 48.0781 203.226 47.9862 202.901C47.8976 202.703 47.7629 202.529 47.5933 202.393L46.6687 201.514L47.1541 201.006C47.2999 200.874 47.4316 200.726 47.5471 200.567C47.57 200.516 47.5819 200.461 47.5819 200.405C47.5819 200.349 47.57 200.294 47.5471 200.243C47.4871 200.079 47.3831 199.935 47.2466 199.827C47.0835 199.678 46.9054 199.546 46.7149 199.434C46.5128 199.323 46.2943 199.245 46.0677 199.203C45.856 199.144 45.6322 199.144 45.4205 199.203C45.0529 199.361 44.6975 199.547 44.3572 199.758C43.6015 200.194 42.8756 200.681 42.1844 201.214C41.2955 201.879 40.4536 202.605 39.6649 203.387C38.9374 204.099 38.2723 204.872 37.6771 205.698C36.9663 206.681 36.4055 207.764 36.0128 208.911C35.9222 209.221 35.8603 209.538 35.8279 209.859C35.7211 210.323 35.7211 210.805 35.8279 211.269" fill="#FF6B00"/>
<path d="M58.4341 201.607C58.8733 200.937 59.2662 200.382 59.613 199.92C59.902 199.549 60.2107 199.194 60.5375 198.856C60.7159 198.682 60.9183 198.534 61.1385 198.417C61.2541 198.417 61.3234 198.417 61.3466 198.417C61.3697 198.417 61.3466 199.388 60.8612 200.22C60.1577 201.382 59.3859 202.501 58.5497 203.572L57.001 203.849C57.396 203.054 57.8358 202.282 58.3185 201.538L58.4341 201.607ZM51.9157 206.161C51.9714 206.434 52.0409 206.704 52.1238 206.97C52.3692 207.782 52.7188 208.559 53.1639 209.281C53.4644 209.766 53.788 209.951 54.1116 209.836C54.2908 209.767 54.4388 209.636 54.5277 209.466C54.6983 209.197 54.8379 208.911 54.9438 208.611C55.1056 208.264 55.2905 207.848 55.4985 207.339C55.7066 206.831 55.9377 206.253 56.2382 205.606C56.793 206.137 57.3015 206.6 57.7638 206.97C58.187 207.308 58.644 207.603 59.1275 207.848C59.5184 208.049 59.9404 208.181 60.3757 208.241C60.7738 208.263 61.1726 208.216 61.5546 208.102C62.6013 207.593 63.4768 206.79 64.0741 205.791C64.9808 204.435 65.7992 203.022 66.5243 201.561C66.3314 200.933 66.2531 200.275 66.2931 199.619C65.5464 200.944 64.7124 202.218 63.7967 203.433C63.3148 204.17 62.655 204.774 61.8782 205.19C61.439 205.328 60.6994 205.19 59.7054 204.381L61.7626 201.977C62.2715 201.31 62.7423 200.616 63.1726 199.896C63.5038 199.345 63.7457 198.744 63.8892 198.117C64.0383 197.588 64.0383 197.028 63.8892 196.499C63.8127 196.245 63.687 196.01 63.5193 195.805C63.3546 195.613 63.1594 195.449 62.9415 195.32C62.7451 195.192 62.525 195.106 62.2943 195.065C62.0811 195.018 61.8602 195.018 61.6471 195.065C61.1848 195.285 60.7689 195.591 60.422 195.967C59.7933 196.6 59.2137 197.28 58.6884 198.001C58.0411 198.879 57.3246 199.943 56.5387 201.214C55.7528 202.485 54.9669 203.941 54.2272 205.606L54.0654 204.473C55.4523 201.746 56.6312 199.295 57.602 197.169C58.5728 195.042 59.3587 193.17 59.9134 191.621C60.4146 190.417 60.8393 189.181 61.1848 187.923C61.4017 187.348 61.4808 186.731 61.4159 186.12C61.3508 185.914 61.2104 185.741 61.023 185.635C60.8305 185.555 60.6144 185.555 60.422 185.635C60.0886 185.809 59.7969 186.054 59.5667 186.351C59.0648 186.929 58.6015 187.539 58.1798 188.177C57.6713 188.963 57.0703 189.934 56.4462 191.067C55.8221 192.199 55.1749 193.54 54.5046 195.019C53.8343 196.499 53.4182 197.608 53.0252 198.741C52.6473 199.765 52.346 200.816 52.1238 201.884C51.9672 202.746 51.8975 203.621 51.9157 204.496C51.9157 204.496 51.9157 204.496 51.9157 204.635C51.9403 205.197 52.0255 205.755 52.17 206.299" fill="#FF6B00"/>
<path d="M70.0839 196.221C70.4183 195.582 70.8049 194.971 71.2397 194.395C71.5925 193.949 71.9959 193.546 72.4416 193.193C72.7104 192.955 73.0145 192.76 73.3431 192.615C73.4972 192.615 73.6128 192.708 73.6898 192.893C73.8285 193.332 73.5512 194.048 72.8115 195.019C71.7555 196.316 70.562 197.494 69.2518 198.533C69.4379 197.732 69.7172 196.957 70.0839 196.221V196.221ZM66.6398 201.769C66.6286 201.822 66.6286 201.877 66.6398 201.931C66.7899 202.491 67.0487 203.016 67.4017 203.476C67.7547 203.936 68.1949 204.322 68.6971 204.612C69.1917 204.832 69.7273 204.946 70.2689 204.946C70.8105 204.946 71.346 204.832 71.8407 204.612C73.2733 204.09 74.5361 203.187 75.4928 202C76.803 200.362 77.9199 198.578 78.8213 196.683L78.359 195.366C77.5123 196.903 76.4713 198.325 75.2616 199.596C74.5217 200.421 73.6052 201.069 72.5803 201.491C72.2984 201.609 71.9959 201.67 71.6904 201.67C71.3849 201.67 71.0824 201.609 70.8005 201.491C70.52 201.344 70.2726 201.141 70.0738 200.895C69.875 200.648 69.7289 200.364 69.6448 200.058V199.92C70.7971 199.269 71.8746 198.494 72.8577 197.608C73.6453 196.914 74.358 196.139 74.9843 195.297C75.4648 194.638 75.8319 193.903 76.0707 193.124C76.2521 192.584 76.2521 191.999 76.0707 191.46C76.015 191.252 75.9001 191.065 75.7401 190.921C75.58 190.778 75.3817 190.683 75.1692 190.65C74.5151 190.603 73.8589 190.706 73.2507 190.951C72.1674 191.308 71.1684 191.882 70.3151 192.638C69.3335 193.482 68.4979 194.482 67.8418 195.597C67.0106 196.855 66.5097 198.302 66.3856 199.804C66.3456 200.46 66.4239 201.117 66.6167 201.746" fill="#FF6B00"/>
<path d="M47.7089 235.216C47.45 236.246 47.2952 237.299 47.2466 238.359C47.189 239.137 47.2672 239.92 47.4777 240.671C47.769 241.718 48.3357 242.668 49.1189 243.421C49.4238 243.705 49.8037 243.895 50.2135 243.969C50.6233 244.042 51.0457 243.997 51.4303 243.838C51.9145 243.645 52.3666 243.38 52.771 243.052C53.4013 242.571 53.982 242.029 54.5046 241.434C55.2021 240.664 55.8432 239.845 56.4231 238.983C57.0142 238.139 57.5397 237.25 57.9949 236.325C57.9949 236.071 57.7638 235.817 57.6482 235.516C57.5326 235.216 57.6482 235.123 57.6482 234.938C57.2877 235.545 56.8942 236.132 56.4693 236.695C56.0376 237.288 55.5665 237.852 55.0593 238.382C54.698 238.777 54.3036 239.141 53.8805 239.469C53.6371 239.677 53.3645 239.848 53.0715 239.977C52.7016 240.093 52.4474 240.093 52.2856 239.977C52.0425 239.747 51.8735 239.449 51.8002 239.122C51.4288 237.604 51.4288 236.018 51.8002 234.499C52.3382 231.982 53.1121 229.521 54.1116 227.149C54.4584 226.34 54.7589 225.623 55.0362 225.045C55.3136 224.467 55.5679 223.913 55.7528 223.473C55.9201 223.107 56.0591 222.728 56.1689 222.341C56.2384 222.076 56.2384 221.797 56.1689 221.532C56.0626 221.287 55.9309 221.055 55.7759 220.838C55.5628 220.583 55.331 220.343 55.0825 220.122C54.8511 219.907 54.595 219.721 54.3197 219.567C54.2105 219.519 54.0924 219.494 53.973 219.494C53.8535 219.494 53.7354 219.519 53.6262 219.567C53.1248 219.847 52.6908 220.234 52.3549 220.7C51.6083 221.61 50.9211 222.567 50.2977 223.566C49.4656 224.814 48.541 226.34 47.5008 228.189C46.4607 230.038 45.3512 232.141 44.1261 234.569C44.9049 232.192 45.5303 229.767 45.9984 227.31C46.2911 226.179 46.3695 225.003 46.2295 223.843C46.1225 223.52 45.9403 223.227 45.6979 222.988C45.4789 222.769 45.2299 222.582 44.9582 222.433C44.7336 222.318 44.4915 222.24 44.2416 222.202C44.0893 222.169 43.9317 222.169 43.7793 222.202C43.3213 222.448 42.9197 222.786 42.6005 223.196C41.8786 224.014 41.2217 224.888 40.6357 225.808C39.7034 227.197 38.8543 228.641 38.0931 230.13C37.1916 231.864 36.267 233.921 35.3193 236.279C35.9744 234.395 36.4466 232.452 36.7293 230.477C36.9119 229.063 36.7777 227.626 36.3364 226.27C36.2185 225.962 36.0548 225.674 35.851 225.415C35.6276 225.104 35.3719 224.817 35.0882 224.56C34.8111 224.321 34.4993 224.127 34.1636 223.982C33.8579 223.869 33.5216 223.869 33.2159 223.982C32.397 224.368 31.622 224.84 30.9044 225.392C29.4598 226.492 28.0784 227.673 26.7669 228.929L27.599 227.542L27.8302 227.056C27.8302 227.056 27.8302 226.848 27.8302 226.825C27.8302 226.802 27.8302 226.825 27.8302 226.825C27.8085 226.815 27.7848 226.809 27.7608 226.809C27.7368 226.809 27.7131 226.815 27.6915 226.825C27.567 226.896 27.4572 226.99 27.3679 227.102L26.8131 227.727C26.6282 227.981 26.4202 228.281 26.2121 228.628C26.0061 228.956 25.8356 229.304 25.7036 229.668C25.5837 229.996 25.506 230.338 25.4725 230.685C25.437 231.077 25.437 231.472 25.4725 231.864C25.4478 232.257 25.4478 232.65 25.4725 233.043C25.5146 233.389 25.5921 233.73 25.7036 234.06C25.7458 234.239 25.8529 234.395 26.0041 234.499C26.0951 234.539 26.1935 234.56 26.293 234.56C26.3925 234.56 26.4909 234.539 26.582 234.499C27.0859 234.275 27.5295 233.934 27.8764 233.505L29.8874 231.425C30.812 230.454 31.5748 229.714 32.1989 229.113C32.5309 228.75 32.9216 228.446 33.3546 228.212C33.4833 228.178 33.6188 228.178 33.7475 228.212C33.8014 228.222 33.8514 228.247 33.8921 228.284C33.9329 228.32 33.9628 228.368 33.9787 228.42C34.131 229.485 34.0681 230.57 33.7938 231.61C33.3615 233.874 32.7746 236.106 32.037 238.29C31.7366 239.238 31.4592 240.093 31.1587 240.833L30.4421 242.844C30.254 243.329 30.1146 243.833 30.0261 244.346C29.9201 244.716 29.9201 245.109 30.0261 245.479C30.1485 245.839 30.3196 246.181 30.5346 246.496C30.7423 246.777 30.9744 247.04 31.228 247.282C31.4362 247.485 31.6788 247.649 31.9446 247.767C32.1396 247.832 32.3506 247.832 32.5456 247.767C32.8527 247.63 33.105 247.394 33.2621 247.097C33.5084 246.602 33.7246 246.092 33.9093 245.571C34.1405 244.924 34.3948 244.153 34.6721 243.26C34.9495 242.335 35.3193 241.249 35.7354 240.024C36.6206 237.301 37.6783 234.637 38.9021 232.049C39.8671 229.924 41.094 227.929 42.5543 226.109C42.3231 227.65 42.0457 229.106 41.7221 230.477C41.3985 231.841 41.0518 233.089 40.7051 234.245C40.3584 235.401 39.9885 236.556 39.6418 237.435C39.2951 238.313 38.9946 239.261 38.7403 240.047C38.5306 240.728 38.3684 241.423 38.2549 242.127C38.1357 242.636 38.1357 243.166 38.2549 243.676C38.3755 244.029 38.5304 244.37 38.7172 244.693C38.8952 244.986 39.0962 245.264 39.3182 245.525C39.4792 245.732 39.6656 245.919 39.873 246.08C39.9903 246.175 40.1381 246.224 40.289 246.218C40.6126 246.218 41.0056 245.571 41.4679 244.577C41.9302 243.583 42.5774 242.266 43.3864 240.324C43.918 239.099 44.4497 238.013 45.0044 236.718C45.5592 235.424 46.1371 234.407 46.7611 233.159C47.3852 231.91 48.0093 230.847 48.7028 229.691C49.3962 228.536 50.0897 227.38 50.8756 226.34C50.0808 227.915 49.3784 229.536 48.7721 231.194C48.2692 232.506 47.8522 233.849 47.5239 235.216" fill="#FF6B00"/>
<path d="M60.9998 229.714C61.3203 229.067 61.7077 228.455 62.1556 227.888C62.5073 227.442 62.9022 227.032 63.3344 226.663C63.606 226.435 63.9098 226.248 64.2359 226.109C64.3977 226.109 64.5133 226.109 64.5826 226.363C64.652 226.617 64.4439 227.519 63.7274 228.512C62.6627 229.822 61.4702 231.022 60.1677 232.095C60.3386 231.29 60.6185 230.513 60.9998 229.784V229.714ZM57.9025 236.279C58.2246 237.082 58.8119 237.751 59.5667 238.174C60.0628 238.389 60.5978 238.5 61.1385 238.5C61.6792 238.5 62.2142 238.389 62.7103 238.174C64.1614 237.652 65.4355 236.731 66.3856 235.516C67.6911 233.883 68.8076 232.107 69.7141 230.223L69.2749 228.882C68.4124 230.449 67.3562 231.901 66.1313 233.205C65.3858 234.034 64.4609 234.682 63.4269 235.1C62.8641 235.331 62.2329 235.331 61.6702 235.1C61.3896 234.953 61.1423 234.75 60.9435 234.504C60.7446 234.257 60.5986 233.972 60.5144 233.667V233.528C61.66 232.878 62.7298 232.103 63.7043 231.217C64.4918 230.523 65.2045 229.748 65.8308 228.905C66.315 228.195 66.6891 227.416 66.9403 226.594C67.099 226.058 67.099 225.488 66.9403 224.953C66.8791 224.742 66.7601 224.552 66.5967 224.405C66.4333 224.258 66.2321 224.159 66.0157 224.121C65.3618 224.075 64.7059 224.178 64.0972 224.421C63.0204 224.792 62.0242 225.365 61.1616 226.109C60.1874 226.953 59.3596 227.953 58.7115 229.067C57.5213 230.776 57.0559 232.887 57.417 234.938C57.417 235.123 57.417 235.331 57.417 235.516C57.417 235.701 57.6482 236.071 57.7638 236.325" fill="#FF6B00"/>
<path d="M124.288 150.5C121.088 150.5 117.96 151.449 115.299 153.227C112.638 155.005 110.564 157.532 109.339 160.489C108.115 163.445 107.794 166.698 108.419 169.837C109.043 172.976 110.584 175.859 112.847 178.122C115.11 180.385 117.993 181.926 121.131 182.55C124.27 183.174 127.523 182.854 130.48 181.629C133.437 180.405 135.964 178.331 137.741 175.67C139.519 173.009 140.468 169.881 140.468 166.68C140.484 164.551 140.076 162.44 139.268 160.47C138.46 158.5 137.269 156.711 135.764 155.205C134.258 153.699 132.468 152.508 130.498 151.701C128.528 150.893 126.417 150.485 124.288 150.5" fill="#FF6B00"/>
<path d="M248.414 182.63C251.614 182.63 254.743 181.681 257.404 179.903C260.064 178.125 262.138 175.598 263.363 172.641C264.588 169.685 264.908 166.431 264.284 163.293C263.659 160.154 262.118 157.271 259.855 155.008C257.593 152.745 254.71 151.204 251.571 150.58C248.432 149.956 245.179 150.276 242.222 151.501C239.266 152.725 236.739 154.799 234.961 157.46C233.183 160.121 232.234 163.249 232.234 166.449C232.219 168.578 232.627 170.689 233.434 172.659C234.242 174.629 235.433 176.419 236.939 177.925C238.444 179.43 240.234 180.622 242.204 181.429C244.174 182.237 246.285 182.645 248.414 182.63" fill="#FF6B00"/>
<path d="M90.7254 523.364L84.6925 533.812L82.8664 532.749L85.5246 528.126L80.5549 525.237L77.8967 529.836L76.0706 528.773L82.1267 518.325L83.9297 519.389L81.4333 523.711L86.403 526.623L88.8993 522.301L90.7254 523.364Z" fill="#FF6B00"/>
<path d="M91.5575 532.263L94.8398 533.835L95.3946 528.38L91.5575 532.263ZM95.5333 525.722L97.5211 526.67L96.4348 539.521L94.3544 538.551L94.6318 535.708L90.24 533.604L88.2521 535.638L86.3105 534.69L95.5333 525.722Z" fill="#FF6B00"/>
<path d="M104.756 542.804L103.485 531.94L100.018 540.955L98.099 540.215L102.468 528.935L105.103 529.975L106.374 540.816L109.841 531.824L111.737 532.564L107.391 543.844L104.756 542.804Z" fill="#FF6B00"/>
<path d="M116.267 535.846L115.25 535.523L112.615 543.798L113.632 544.121C115.828 544.815 118.255 545.023 119.341 541.371C120.428 537.719 118.417 536.54 116.221 535.846H116.267ZM116.822 534.251C120.451 535.384 122.855 537.534 121.445 542.018C120.035 546.502 116.822 546.918 113.239 545.786L110.096 544.792L113.701 533.234L116.822 534.251Z" fill="#FF6B00"/>
<path d="M126.992 549.715L126.322 539.475L124.034 548.975L122.023 548.49L124.866 536.748L128.033 537.534L128.61 547.589L133.696 538.921L136.862 539.683L134.019 551.426L132.031 550.94L134.343 541.44L129.073 550.224L126.992 549.715Z" fill="#FF6B00"/>
<path d="M140.075 548.051L143.658 548.721L142.803 543.289L140.075 548.051ZM142.225 540.677L144.398 541.093L146.709 553.783L144.398 553.367L143.936 550.57L139.151 549.669L137.764 552.188L135.661 551.795L142.225 540.677Z" fill="#FF6B00"/>
<path d="M152.789 544.121L151.702 543.983L150.57 552.604L151.633 552.743C153.944 553.044 156.256 552.743 156.811 549.045C157.365 545.346 155.054 544.422 152.789 544.121ZM153.089 542.457C156.857 542.942 159.584 544.769 158.983 549.391C158.382 554.014 155.285 555.008 151.517 554.523L148.258 554.084L149.83 542.087L153.089 542.457Z" fill="#FF6B00"/>
<path d="M161.549 543.52L170.009 544.283L169.847 546.04L163.491 545.462L163.213 548.698L169.223 549.23L169.084 550.963L163.051 550.432L162.751 553.968L169.108 554.546L168.969 556.326L160.486 555.563L161.549 543.52Z" fill="#FF6B00"/>
<path d="M175.007 542.121L174.524 554.209L176.627 554.294L177.111 542.205L175.007 542.121Z" fill="#FF6B00"/>
<path d="M186.744 556.904L181.728 547.196L181.636 556.858L179.602 556.834L179.717 544.722L182.537 544.769L187.53 554.477L187.646 544.815L189.68 544.838L189.564 556.927L186.744 556.904Z" fill="#FF6B00"/>
<path d="M201.353 556.534L197.747 546.941L198.301 556.719L196.244 556.834L195.574 544.745L198.833 544.561L202.277 554.038L204.658 544.237L207.917 544.052L208.588 556.141L206.53 556.257L205.976 546.456L203.479 556.418L201.353 556.534Z" fill="#FF6B00"/>
<path d="M210.113 543.844L218.573 542.943L218.758 544.699L212.401 545.37L212.725 548.582L218.758 547.958L218.943 549.692L212.91 550.339L213.28 553.853L219.66 553.182L219.844 554.962L211.384 555.864L210.113 543.844Z" fill="#FF6B00"/>
<path d="M223.612 552.604L229.622 551.726L229.876 553.506L221.786 554.685L220.052 542.711L222.133 542.411L223.612 552.604Z" fill="#FF6B00"/>
<path d="M233.182 551.148L235.932 550.617C237.412 550.339 238.013 549.507 237.781 548.305C237.55 547.103 236.695 546.664 235.123 546.964L232.488 547.473L233.182 551.148ZM232.188 545.901L234.753 545.416C235.979 545.185 236.603 544.514 236.395 543.335C236.187 542.157 235.308 541.902 234.083 542.11L231.517 542.619L232.188 545.901ZM229.16 541.278L233.621 540.423C235.747 540.007 237.966 540.192 238.452 542.619C238.544 543.118 238.516 543.631 238.372 544.117C238.227 544.603 237.969 545.048 237.62 545.416C238.217 545.521 238.765 545.816 239.181 546.258C239.598 546.699 239.861 547.263 239.931 547.866C240.44 550.409 238.614 551.772 236.21 552.235L231.587 553.159L229.16 541.278Z" fill="#FF6B00"/>
<path d="M247.467 548.236C249.385 547.75 250.541 545.924 249.778 542.966C249.015 540.007 247.166 538.967 245.155 539.452C243.144 539.938 242.081 541.764 242.844 544.699C243.606 547.635 245.479 548.721 247.467 548.236ZM247.883 549.923C246.685 550.331 245.392 550.369 244.173 550.03C242.954 549.692 241.865 548.993 241.049 548.026C240.233 547.059 239.728 545.868 239.6 544.61C239.472 543.351 239.726 542.083 240.33 540.971C240.934 539.859 241.859 538.955 242.985 538.378C244.111 537.8 245.385 537.576 246.64 537.734C247.895 537.892 249.074 538.425 250.021 539.264C250.969 540.102 251.641 541.207 251.951 542.434C252.231 543.191 252.346 543.999 252.288 544.804C252.23 545.609 252.001 546.392 251.616 547.101C251.23 547.811 250.698 548.429 250.054 548.916C249.41 549.403 248.67 549.746 247.883 549.923" fill="#FF6B00"/>
<path d="M253.892 535.546L256.019 542.365C256.689 544.468 257.591 545.462 259.741 544.792C261.89 544.121 262.052 542.711 261.359 540.608L259.255 533.858L261.266 533.211L263.346 539.891C264.479 543.52 263.601 545.393 260.249 546.433C256.897 547.473 255.141 546.641 253.985 542.919L251.882 536.193L253.892 535.546Z" fill="#FF6B00"/>
<path d="M265.75 533.373L267.045 536.748L268.986 535.985C270.674 535.338 271.506 534.621 270.974 533.28C270.443 531.94 269.171 532.032 267.646 532.633L265.75 533.373ZM270.119 537.326L269.541 537.58L267.646 538.32L269.449 543.058L267.484 543.821L263.185 532.541L266.744 531.154C270.05 529.883 272.038 529.975 272.985 532.471C273.273 533.111 273.331 533.831 273.15 534.509C272.969 535.187 272.56 535.781 271.991 536.193L276.614 540.33L274.303 541.186L270.119 537.326Z" fill="#FF6B00"/>
<path d="M284.959 536.424L276.268 529.86L280.359 538.597L278.51 539.475L273.401 528.542L275.944 527.34L284.635 533.882L280.567 525.144L282.393 524.289L287.524 535.222L284.959 536.424Z" fill="#FF6B00"/>
<path d="M284.219 523.272L291.593 519.042L292.471 520.567L286.923 523.757L288.518 526.577L293.765 523.549L294.644 525.075L289.374 528.103L291.13 531.177L296.701 527.987L297.579 529.536L290.206 533.789L284.219 523.272Z" fill="#FF6B00"/>
<path d="M295.476 213.811L294.782 211.685C293.63 212.24 292.723 213.2 292.234 214.382C291.745 215.564 291.709 216.885 292.132 218.092C292.555 219.299 293.408 220.307 294.528 220.925C295.648 221.542 296.957 221.726 298.203 221.439C299.037 221.168 299.78 220.674 300.353 220.011C300.926 219.348 301.307 218.541 301.455 217.677C301.602 216.813 301.511 215.925 301.19 215.11C300.87 214.294 300.333 213.581 299.637 213.049L303.127 212.401L305.138 218.596L307.08 217.972L304.468 209.951L296.747 211.454L297.302 213.557C297.822 213.632 298.308 213.861 298.695 214.216C299.083 214.57 299.355 215.034 299.475 215.545C299.597 215.92 299.639 216.316 299.599 216.708C299.558 217.1 299.436 217.479 299.24 217.821C299.044 218.163 298.779 218.46 298.461 218.693C298.143 218.926 297.78 219.09 297.394 219.174C297.043 219.327 296.663 219.404 296.28 219.4C295.897 219.395 295.519 219.309 295.171 219.148C294.824 218.986 294.514 218.752 294.264 218.462C294.014 218.171 293.828 217.831 293.719 217.464C293.581 217.111 293.517 216.734 293.53 216.355C293.543 215.977 293.634 215.605 293.796 215.263C293.959 214.92 294.189 214.615 294.474 214.366C294.759 214.116 295.092 213.927 295.453 213.811" fill="#FF6B00"/>
<path d="M303.728 230.523C300.353 231.61 298.111 231.101 297.487 229.16C296.863 227.218 298.388 225.531 301.763 224.537C305.138 223.543 307.38 223.959 308.004 225.877C308.628 227.796 307.103 229.53 303.728 230.5V230.523ZM301.023 222.133C296.909 223.45 294.644 226.109 295.8 229.691C296.955 233.274 300.422 234.106 304.468 232.789C308.513 231.471 310.824 228.813 309.668 225.23C308.513 221.647 305.045 220.815 301.023 222.133Z" fill="#FF6B00"/>
<path d="M307.634 242.636C304.236 243.722 302.017 243.213 301.393 241.272C300.769 239.33 302.295 237.643 305.67 236.649C309.044 235.655 311.263 236.071 311.887 237.99C312.512 239.908 311.009 241.642 307.634 242.612V242.636ZM304.93 234.245C300.815 235.562 298.55 238.221 299.706 241.803C300.862 245.386 304.329 246.218 308.351 244.901C312.373 243.583 314.731 240.902 313.575 237.319C312.419 233.736 308.952 232.927 304.93 234.245Z" fill="#FF6B00"/>
<path d="M314.083 250.841C313.917 250.257 313.591 249.732 313.141 249.323C312.692 248.915 312.138 248.64 311.541 248.53L312.928 248.068L312.211 245.756L302.272 248.969L302.988 251.28L308.281 249.57C310.061 248.992 311.541 249.131 312.049 250.772C312.558 252.413 311.31 252.945 309.969 253.384L304.26 255.21L304.953 257.521L310.246 255.834C312.026 255.256 313.505 255.395 314.037 257.013C314.569 258.631 313.274 259.186 311.934 259.625L306.224 261.451L306.941 263.647L313.182 261.659C315.493 260.896 316.811 259.486 316.048 257.036C315.848 256.391 315.486 255.808 314.996 255.342C314.506 254.877 313.906 254.545 313.251 254.378C313.745 253.967 314.093 253.407 314.243 252.782C314.393 252.158 314.337 251.501 314.083 250.911" fill="#FF6B00"/>
<path d="M321.11 261.59L307.704 265.889L310.639 274.996L312.604 274.349L310.454 267.6L321.873 263.924L321.11 261.59Z" fill="#FF6B00"/>
</g>
<defs>
<clipPath id="clip0_2_116">
<rect width="346.213" height="556.95" fill="white"/>
</clipPath>
</defs>
</svg>
