<?xml version="1.0" standalone="no"?>
<!DOCTYPE svg PUBLIC "-//W3C//DTD SVG 20010904//EN"
 "http://www.w3.org/TR/2001/REC-SVG-20010904/DTD/svg10.dtd">
<svg version="1.0" xmlns="http://www.w3.org/2000/svg"
 width="260.000000pt" height="260.000000pt" viewBox="0 0 260.000000 260.000000"
 preserveAspectRatio="xMidYMid meet">
<metadata>
Created by potrace 1.14, written by Peter Selinger 2001-2017
</metadata>
<g transform="translate(0.000000,260.000000) scale(0.100000,-0.100000)"
fill="#000000" stroke="none">
<path d="M1180 2299 c-19 -5 -39 -11 -45 -12 -149 -42 -218 -102 -290 -252
-46 -95 -88 -158 -98 -144 -2 2 -15 23 -30 46 -15 24 -48 63 -74 88 -104 101
-313 160 -313 87 0 -25 12 -38 35 -37 38 1 115 -23 159 -49 96 -56 186 -186
186 -267 0 -64 31 -114 93 -153 40 -25 123 -27 214 -5 85 20 173 32 243 32 52
0 61 -2 158 -32 134 -41 229 -47 292 -20 91 40 176 169 179 270 2 59 157 175
248 185 78 8 93 16 93 44 0 72 -205 24 -315 -74 l-40 -35 -23 48 c-56 118
-167 206 -337 267 -57 20 -275 28 -335 13z m194 -201 c8 -9 12 -45 11 -111 -1
-96 -2 -98 -33 -130 -27 -27 -39 -32 -77 -31 -54 1 -90 30 -105 83 -12 44 5
85 40 89 28 4 50 -20 50 -55 0 -24 25 -32 32 -10 2 6 4 39 3 72 -3 79 7 105
40 105 15 0 32 -6 39 -12z"/>
<path d="M235 1895 c-85 -19 -122 -46 -109 -79 7 -19 38 -20 90 -3 104 35 229
-16 308 -124 37 -52 61 -60 77 -25 10 21 7 30 -20 69 -66 97 -165 154 -279
160 -31 2 -61 3 -67 2z"/>
<path d="M2234 1889 c-69 -13 -137 -50 -195 -110 -59 -59 -78 -101 -58 -125
19 -23 36 -16 66 24 92 125 216 172 340 128 37 -13 43 -13 55 2 23 27 10 50
-35 66 -52 19 -119 25 -173 15z"/>
<path d="M188 1645 c-2 -2 -16 -5 -33 -8 -70 -12 -125 -48 -125 -82 0 -33 33
-41 68 -17 86 60 200 44 284 -39 54 -53 85 -61 99 -23 14 40 -105 141 -189
159 -37 8 -100 13 -104 10z"/>
<path d="M2303 1639 c-75 -14 -147 -60 -189 -121 -22 -31 -24 -40 -14 -53 20
-25 44 -17 85 27 79 83 190 104 284 55 53 -27 75 -27 85 0 9 21 -17 48 -70 73
-48 24 -117 31 -181 19z"/>
<path d="M841 1391 c-53 -49 -68 -121 -30 -142 27 -14 40 -2 54 48 21 73 70
69 92 -7 15 -50 29 -63 55 -49 22 12 24 68 3 109 -38 73 -119 93 -174 41z"/>
<path d="M1615 1408 c-50 -29 -85 -110 -65 -148 20 -37 56 -21 65 29 6 34 28
60 52 61 17 0 43 -40 43 -67 0 -12 7 -29 16 -38 14 -14 19 -14 38 -2 23 16 24
23 13 77 -17 79 -99 124 -162 88z"/>
<path d="M278 1345 c-2 -2 -25 -5 -51 -6 -26 -2 -47 -7 -47 -13 0 -5 -3 -7 -6
-3 -11 11 -100 -41 -132 -78 -25 -28 -32 -45 -32 -79 0 -59 23 -56 68 7 43 60
113 97 184 97 l47 0 -2 -82 c-3 -152 19 -251 84 -381 118 -238 350 -418 634
-492 190 -50 468 -35 630 35 25 11 47 19 50 19 3 1 32 14 65 30 255 127 442
367 488 626 4 22 7 86 7 143 l0 102 44 0 c90 0 126 -21 218 -125 32 -36 43
-31 43 18 0 95 -124 179 -265 179 -64 0 -153 -22 -160 -40 -9 -23 5 -52 25
-52 26 0 29 -15 25 -122 -7 -207 -111 -407 -285 -552 -41 -33 -136 -96 -146
-96 -4 0 -15 -6 -23 -13 -44 -37 -247 -97 -344 -102 -32 -1 -60 -5 -63 -8 -3
-3 -19 -1 -35 3 -16 5 -29 5 -29 1 0 -5 -12 -7 -27 -5 -16 2 -53 6 -83 9 -76
8 -206 43 -262 70 -25 13 -49 21 -52 18 -3 -4 -6 -1 -6 5 0 7 -5 12 -11 12
-40 0 -299 215 -299 248 0 6 -3 12 -7 14 -11 4 -57 77 -75 118 -47 105 -67
189 -69 285 -2 107 -1 115 21 115 22 0 39 25 33 50 -3 13 -23 21 -66 30 -34 6
-67 13 -74 15 -6 2 -13 2 -15 0z"/>
<path d="M1235 1262 c-119 -42 -205 -247 -156 -373 26 -71 111 -128 192 -132
120 -5 226 117 214 244 -10 95 -60 196 -121 242 -26 19 -98 30 -129 19z"/>
<path d="M1747 1046 c-88 -32 -117 -126 -63 -209 52 -78 203 -59 230 30 15 49
15 68 -4 110 -15 34 -29 48 -62 63 -51 23 -52 23 -101 6z"/>
<path d="M694 1040 c-12 -5 -34 -25 -49 -44 -24 -31 -27 -43 -23 -85 6 -59 31
-95 81 -116 42 -17 68 -15 120 10 114 54 64 245 -63 244 -25 0 -55 -4 -66 -9z"/>
<path d="M1083 673 c-21 -7 -15 -48 10 -70 56 -52 98 -68 187 -68 69 0 93 4
127 23 63 33 84 59 71 87 -13 29 -37 26 -84 -10 -26 -20 -49 -27 -95 -30 -65
-4 -105 8 -153 46 -31 25 -43 29 -63 22z"/>
</g>
</svg>
